<mxfile host="65bd71144e">
    <diagram id="PewshC_MQovgL_g7wUjo" name="페이지-1">
        <mxGraphModel dx="798" dy="617" grid="1" gridSize="10" guides="1" tooltips="1" connect="1" arrows="1" fold="1" page="1" pageScale="1" pageWidth="827" pageHeight="1169" math="0" shadow="0">
            <root>
                <mxCell id="0"/>
                <mxCell id="1" parent="0"/>
                <mxCell id="2" value="" style="strokeWidth=2;html=1;shape=mxgraph.flowchart.multi-document;whiteSpace=wrap;fontFamily=Comic Sans MS;" parent="1" vertex="1">
                    <mxGeometry x="480" y="260" width="118" height="180" as="geometry"/>
                </mxCell>
                <mxCell id="3" value="" style="endArrow=none;html=1;strokeWidth=2;fontFamily=Comic Sans MS;" parent="1" edge="1">
                    <mxGeometry width="50" height="50" relative="1" as="geometry">
                        <mxPoint x="490" y="310" as="sourcePoint"/>
                        <mxPoint x="570" y="310" as="targetPoint"/>
                    </mxGeometry>
                </mxCell>
                <mxCell id="4" value="" style="endArrow=none;html=1;strokeWidth=2;fontFamily=Comic Sans MS;" parent="1" edge="1">
                    <mxGeometry width="50" height="50" relative="1" as="geometry">
                        <mxPoint x="500" y="320" as="sourcePoint"/>
                        <mxPoint x="570" y="320" as="targetPoint"/>
                    </mxGeometry>
                </mxCell>
                <mxCell id="5" value="" style="endArrow=none;html=1;strokeWidth=2;fontFamily=Comic Sans MS;" parent="1" edge="1">
                    <mxGeometry width="50" height="50" relative="1" as="geometry">
                        <mxPoint x="500" y="330" as="sourcePoint"/>
                        <mxPoint x="540" y="330" as="targetPoint"/>
                    </mxGeometry>
                </mxCell>
                <mxCell id="6" value="" style="endArrow=none;html=1;strokeWidth=2;fontFamily=Comic Sans MS;" parent="1" edge="1">
                    <mxGeometry width="50" height="50" relative="1" as="geometry">
                        <mxPoint x="510" y="340" as="sourcePoint"/>
                        <mxPoint x="560" y="340" as="targetPoint"/>
                    </mxGeometry>
                </mxCell>
                <mxCell id="7" value="" style="endArrow=none;html=1;strokeWidth=2;entryX=0.678;entryY=0.5;entryDx=0;entryDy=0;entryPerimeter=0;fontFamily=Comic Sans MS;" parent="1" edge="1">
                    <mxGeometry width="50" height="50" relative="1" as="geometry">
                        <mxPoint x="511" y="350" as="sourcePoint"/>
                        <mxPoint x="561.004" y="350" as="targetPoint"/>
                    </mxGeometry>
                </mxCell>
                <mxCell id="10" value="" style="endArrow=none;html=1;strokeWidth=2;entryX=0.678;entryY=0.5;entryDx=0;entryDy=0;entryPerimeter=0;fontFamily=Comic Sans MS;" parent="1" edge="1">
                    <mxGeometry width="50" height="50" relative="1" as="geometry">
                        <mxPoint x="490.00000000000006" y="360" as="sourcePoint"/>
                        <mxPoint x="540.004" y="360" as="targetPoint"/>
                    </mxGeometry>
                </mxCell>
                <mxCell id="11" value="" style="endArrow=none;html=1;strokeWidth=2;entryX=0.763;entryY=0.611;entryDx=0;entryDy=0;entryPerimeter=0;fontFamily=Comic Sans MS;" parent="1" target="2" edge="1">
                    <mxGeometry width="50" height="50" relative="1" as="geometry">
                        <mxPoint x="500.00000000000006" y="370" as="sourcePoint"/>
                        <mxPoint x="560" y="370" as="targetPoint"/>
                    </mxGeometry>
                </mxCell>
                <mxCell id="12" value="" style="endArrow=none;html=1;strokeWidth=2;fontFamily=Comic Sans MS;" parent="1" edge="1">
                    <mxGeometry width="50" height="50" relative="1" as="geometry">
                        <mxPoint x="500.0000000000001" y="380" as="sourcePoint"/>
                        <mxPoint x="550" y="380" as="targetPoint"/>
                    </mxGeometry>
                </mxCell>
                <mxCell id="13" value="" style="endArrow=none;html=1;strokeWidth=2;entryX=0.763;entryY=0.722;entryDx=0;entryDy=0;entryPerimeter=0;fontFamily=Comic Sans MS;" parent="1" target="2" edge="1">
                    <mxGeometry width="50" height="50" relative="1" as="geometry">
                        <mxPoint x="510.0000000000001" y="390" as="sourcePoint"/>
                        <mxPoint x="560" y="390" as="targetPoint"/>
                    </mxGeometry>
                </mxCell>
                <mxCell id="15" value="" style="endArrow=none;html=1;strokeWidth=2;entryX=0.763;entryY=0.778;entryDx=0;entryDy=0;entryPerimeter=0;fontFamily=Comic Sans MS;" parent="1" target="2" edge="1">
                    <mxGeometry width="50" height="50" relative="1" as="geometry">
                        <mxPoint x="490.0000000000001" y="400" as="sourcePoint"/>
                        <mxPoint x="550.034" y="399.96000000000004" as="targetPoint"/>
                    </mxGeometry>
                </mxCell>
                <mxCell id="16" value="Production" style="rounded=0;whiteSpace=wrap;html=1;fontStyle=1;fontSize=15;strokeWidth=2;fontFamily=Comic Sans MS;" parent="1" vertex="1">
                    <mxGeometry x="720" y="260" width="126" height="40" as="geometry"/>
                </mxCell>
                <mxCell id="17" value="Codebase" style="text;html=1;strokeColor=none;fillColor=none;align=center;verticalAlign=middle;whiteSpace=wrap;rounded=0;fontStyle=1;fontSize=20;fontFamily=Comic Sans MS;" parent="1" vertex="1">
                    <mxGeometry x="488.5" y="220" width="101" height="40" as="geometry"/>
                </mxCell>
                <mxCell id="18" value="Staging" style="rounded=0;whiteSpace=wrap;html=1;fontStyle=1;fontSize=15;strokeWidth=2;fontFamily=Comic Sans MS;" parent="1" vertex="1">
                    <mxGeometry x="720" y="320" width="126" height="40" as="geometry"/>
                </mxCell>
                <mxCell id="19" value="Developer 1" style="rounded=0;whiteSpace=wrap;html=1;fontStyle=1;fontSize=15;strokeWidth=2;fontFamily=Comic Sans MS;" parent="1" vertex="1">
                    <mxGeometry x="720" y="380" width="126" height="40" as="geometry"/>
                </mxCell>
                <mxCell id="20" value="Developer 2" style="rounded=0;whiteSpace=wrap;html=1;fontStyle=1;fontSize=15;strokeWidth=2;fontFamily=Comic Sans MS;" parent="1" vertex="1">
                    <mxGeometry x="720" y="440" width="126" height="40" as="geometry"/>
                </mxCell>
                <mxCell id="21" value="Deploys" style="text;html=1;strokeColor=none;fillColor=none;align=center;verticalAlign=middle;whiteSpace=wrap;rounded=0;fontStyle=1;fontSize=20;fontFamily=Comic Sans MS;" parent="1" vertex="1">
                    <mxGeometry x="732.5" y="220" width="101" height="40" as="geometry"/>
                </mxCell>
                <mxCell id="22" value="" style="endArrow=classic;html=1;fontSize=20;strokeWidth=2;fontFamily=Comic Sans MS;" parent="1" edge="1">
                    <mxGeometry width="50" height="50" relative="1" as="geometry">
                        <mxPoint x="610" y="340" as="sourcePoint"/>
                        <mxPoint x="710" y="280" as="targetPoint"/>
                    </mxGeometry>
                </mxCell>
                <mxCell id="23" value="" style="endArrow=classic;html=1;fontSize=20;strokeWidth=2;fontFamily=Comic Sans MS;" parent="1" edge="1">
                    <mxGeometry width="50" height="50" relative="1" as="geometry">
                        <mxPoint x="610" y="340" as="sourcePoint"/>
                        <mxPoint x="710" y="340" as="targetPoint"/>
                    </mxGeometry>
                </mxCell>
                <mxCell id="24" value="" style="endArrow=classic;html=1;fontSize=20;strokeWidth=2;fontFamily=Comic Sans MS;" parent="1" edge="1">
                    <mxGeometry width="50" height="50" relative="1" as="geometry">
                        <mxPoint x="610" y="340" as="sourcePoint"/>
                        <mxPoint x="710" y="400" as="targetPoint"/>
                    </mxGeometry>
                </mxCell>
                <mxCell id="25" value="" style="endArrow=classic;html=1;fontSize=20;strokeWidth=2;fontFamily=Comic Sans MS;" parent="1" edge="1">
                    <mxGeometry width="50" height="50" relative="1" as="geometry">
                        <mxPoint x="610" y="340" as="sourcePoint"/>
                        <mxPoint x="710" y="460" as="targetPoint"/>
                    </mxGeometry>
                </mxCell>
                <mxCell id="26" value="PROFILE=PRODCUTION" style="text;html=1;align=center;verticalAlign=middle;whiteSpace=wrap;rounded=0;fillColor=#000000;fontStyle=1;fontColor=#FFFFFF;fontFamily=Comic Sans MS;" vertex="1" parent="1">
                    <mxGeometry x="640" y="290" width="150" height="20" as="geometry"/>
                </mxCell>
                <mxCell id="27" value="PROFILE=DEV2" style="text;html=1;align=center;verticalAlign=middle;whiteSpace=wrap;rounded=0;fillColor=#000000;fontStyle=1;fontColor=#FFFFFF;fontFamily=Comic Sans MS;" vertex="1" parent="1">
                    <mxGeometry x="650" y="410" width="110" height="20" as="geometry"/>
                </mxCell>
                <mxCell id="29" value="" style="shape=image;verticalLabelPosition=bottom;labelBackgroundColor=#ffffff;verticalAlign=top;aspect=fixed;imageAspect=0;image=data:image/png,iVBORw0KGgoAAAANSUhEUgAAAoYAAACQCAYAAACVmqrWAAAgAElEQVR4Ae2d+VcTyfr/799Tt9cLAnLYlwORRUEWITnsKHtkUxQcHRE0rqPgoLhEwiJ+hpkBt+uoI4zCzHzH+z+9v6e60+nO2sEwDujzQ06HVKrqqadeXf3OUwv/+ve//w16kQ+IAWKAGCAGiAFigBggBv5FEBAExAAxQAwQA8QAMUAMEAOcARKGFDGliDExQAwQA8QAMUAMEAMaAyQMCQQaDIgBYoAYIAaIAWKAGNAY+OzCkDGGw4cUPHaKyGGMQCQQiQFigBggBogBYoAY2CUM/APCUECLU8V6p4QSEoZ0I+ySG4HW1tDaGmKAGCAGiAFi4N/4V3V1NYkTEifEADFADBADxAAxQAwQA8HCkKkCzrcpWB9S8deQgqfNEg7L+nQvYwLGOlV4KyRMd6vYGlKw4pJQJJjTwdW1CjZcEk61KtgcUvCyTYIrKTj9fyP/AX997JZQaIkYmuWLmOlSsDWoYMUposBSPpMFnG5WsDGo4mWLhKE6BRt1YhDILMmJU0vv4L3djyxL+fQrgH4JEgPEADFADBADxAAxEJuBoIjhwWoFf3RIqEsTUJgu4sJRFT9XCprwMoTbRoeE3kwBpTkS5vpVLJXq6dzRXBj+3i/DUySgJF3ERIeKjQYRSX6BJisCcvcJKCqXowrDdaP8XAlLAyrmDhj1M5RXKfirV0Z3poBDhRIW3Wq4MEztwOTaFpbmz6KAhGGQaKabIfbNQP4h/xADxAAxQAx87QwECUOXU8UHlwg5gqAyhOFymSkEK6oV/N5gRuy4MPyr2cwvFsj4wy2hIqQ8pTi6MLSW76xXsF5nCEMBIx2mEOWbWDqawoUh71ApJQspqmnn197J1H4a6IgBYoAYIAaIAWIgHgaChGFyjoSXwyredMq4UydhMFcIRPsMYfiw2JwaLjyk4GOzCMkv/Lgw3HSaQpGpIjqKBGRuQxhay6+sVbHl0svj9U/0qpgpMOvXpq5DppLjaTR9h24OYoAYIAaIAWKAGCAGwhkIEobcQUnJAtpLJXicCl4Pq3hSbkbs+BpDq3CzE4bRHB4rYmgtP1QYTvaRMIzmU/o8HG7yCfmEGCAGiAFigBjYHgOaMBQEXfzxq2iJ7hVXKPjYKiKZMRgRQ+tUL59KNiJ63PGhEcNonfGpwpALU98BPWLIp5JbGiJPJQtyMhTJjCxGs4M+3x4s5C/yFzFADBADxAAx8GUz8K+Kigr/5hJ9zd7bZglH0gUUpAk4065io16EYBGGxuaQEr755Li55o+DEksYciGXlmzZfNIjo3af/neqaArP6BFDhiNH9M0xFQpD8n4JD9wRdiWntGH8p00sek8j3yJyCeQvG2TqX+pfYoAYIAaIAWIgcQaCDrgW94m4elTB+2H9uJoXbTIako0InX5czcMKEVNd+nE1P7okFFuOk4ktDAVcdqvaUTXGkTXasTUnFXgy7YUh72yWLGKqR8XHkyp+75PhaYggDJNcGH28Du/MALJJGNKuZDqTihggBogBYoAYIAbiZiBIGMZS2sZU8gPL5pNY3/+70njkcX+ygGSRobZOxTv/ruW/qz4qN/FfH+RD8iExQAwQA8QAMbA3GNi2MLRO9X7uTtamo/3Tz3mpAi51qXhsOUfxc9tD9e0NyKmfqJ+IAWKAGCAGiIH4GNhjwlDAtX59OvqvYf0/s5TRJpO4w8N0U8R3U5CfyE/EADFADBADXysDcQvDr9VB1G4aHIgBYoAYIAaIAWLga2GAhCEtSKWIIzFADBADxAAxQAwQAxoDJAwJBBoMiAFigBggBogBYoAY0BggYUgg0GBADBADxAAxQAwQA8SAxgAJQwKBBgNigBggBogBYoAYIAY0BkgYEgg0GBADxAAxQAwQA8QAMaAxQMKQQKDBgBggBogBYoAYIAaIAY0BEoYEAg0GxAAxQAwQA8QAMUAMaAyQMCQQaDAgBogBYoAYIAaIAWJAY+BvFYbVtQo2neK2YGM5Ejb7ZVQztq18X8vBk9ROOmSVGCAGiAFigBggBv4uBv5VXV39twkwEoYE7t8FLpVLbBEDxAAxQAwQAzvPwI4KQ6aKmGxT8H5IxYtWEcN1wRFDJgsYaZDxZlDFVr8CX62IHH9kkOXJ2Dqp/x/k/438B8br4zEJGcZ3YuTncDBVwPk2BetDKv4a0v+X8mHZjDwyScCAU8HrAQWbbgUPKgWzbCbg2x4V94uFgFCurFWx5TIjnlzobrgknGpVsDmk4GWbBFdScPl99TL+269g09++XCE4fcAp482Qit/7FcxVCcgMiYyyJCdOLb2D93Y/skLS6AbY+RuAfEo+JQaIAWKAGCAGTAZ2TBgyxtDgVPFHl4S2DAFl+RIeudXAVLKermC9VUJLpoADWSJm+hQ8cuhCjEkMRakCig/I2lRyJ3/PX8kMImOwy8879WC1gj86JNSlCShMF3HhqIqfK/3lMwGHaxT83iWjPUNAaa4IX78pBFmcwvD3fhmeIgEl6SImOlRsNIhI8ttXWaNo7e/g7csWcadPxXKZUT9DVa2K345KaEwXUKKlK5g7YApH3gaW2oHJtS0szZ9FAQnDgEinm9a8ackX5AtigBggBoiBv4uBHRSGAs5rETdd6HAh1+wKjhiGNqKKR+DqzIgcT9/OGsPQ/C6nig8uEXIEQcWF39luLgRNIVZRw+0zhFt8EcO/ms3yxQIZf7glVGjCUMDZLhUPiszyswskTJeJfmErYLxXwVSumV5coeDPhuD2cx9IKVlIUXW7Qn1Gf9NgQAwQA8QAMUAMEAN/FwM7KgwvuxXcyjOFT+gaw4wcCXPdfBpWxZ/DKv48ETxVyxsZSxja5U/OkfByWMWbThl36iQM5gpaNE8rlwkIta/wkIKPzSIkv7CLZyrZupmGT513FOnTwVx4hpZv7TQ9XcVfJ/xt5+0fVgP1W79L7+mGJwaIAWKAGCAGiIF/goHPJgyZKGJqQMVihYiyNH2auMOpBK3h4w6IJgzjzZ+ULKC9VIKHryUcVvGk3IwIhgq3RIWhtcPiFYYzDv8UuWWq3FoOvaeBgBggBogBYoAYIAb+KQY0YSgIiU9bcmE03mtO1YZOJbNkCSsnZfT5N4PwdFd9ZGH4IcJxNfHk5+3g6xENZ/Kp2o+tIpKNqd6YU8kMw0dVLJXp+bl9jU4Vr2tN34RGQI16+JW3n09VW6eSc4tl3D+o26T7R8HdQtO+pCQBpcnm30Z5gpwMRQr/3EinKw0YxAAxQAwQA8QAMfB3MPCvioqKgJBKpAIupEI3n/ism08EEdODCn6o1iOGNQ4ZPncEYZgm4fkJBZM5emStKMkf8bPJz+vvaFLxtlnCkXQBBWkCzrSr2KgXIfg3hxibT/jmGGPzyb0iU/gd4Gv+emV0ZuqbZ34YUnHTsiYwtjBkqKxV8GeXBL75hG8umXWreFxqCk2++WSrS9I2vzgyRUz38s0pwQKQpbRh/KdNLHpPI98ichPpG8pLgwcxQAwQA8QAMUAMxMPAjh5wbT2u5lWbhBFn8OaT7DwJi70KtvxHyfTVRBCGTEBrnYJ3Q/rRNdbjYuzyi/tEXD2q4P2wflzNizYZDZaInHZcjct/XM1xBQ8tx9VwZzFRQE+9jF/8x9ncKReQahFnsYShll8W4HYqeNWvRj6uRhYw6FLw1jiup0ZEjuU4G62MJBdGH6/DOzOAbEvd8XQmfYduemKAGCAGiAFigBhIhIEdFYaJGEJ5CWRigBggBogBYoAYIAb+WQZIGNL/RtyRpQR0I/+zNzL5n/xPDBADxAAxsBMMkDAkYUjCkBggBogBYoAYIAaIAY0BEoYEAg0GxAAxQAwQA8QAMUAMaAyQMCQQaDAgBogBYoAYIAaIAWJAY4CEIYFAgwExQAwQA8QAMUAMEAMaAwkLw9TUVIKJYCIGiAFigBggBogBYuALYICE4RfQiTuxC4nKoN1sxAAxQAwQA8QAMUDCkIQh/cIjBogBYoAYIAaIAWJAY4CEIYFAgwExQAwQA8QAMUAMEAMaAyQMCQQaDIgBYoAYIAaIAWKAGNAY+OKEIWMMhw8peOwUkUP/a5hu9K/sRmdMRGbLBNoH6pC8S/nfCzZ+6jqrL7ltn+oTykdr1oiBvcXArhaG1bUKNp3itsQNYwJanCrWOyWU7NIHY6SbpMGp4n8j/9FeH0/K6BLZttodqUz6bG/djDvRX4ypyD8+A/eFTuxPkP+snjvo76/QOGQsA4cmFtBULSfMZbw2/l31R/Kz0b4Ts4sYvuND/7WrqHcVQd6mD+NtWyQb6LOv736lPqc+340MfHHCcDc6OR6bVJUhd5+A3GwJz0kYJiw+4vE5fSf2oPw5hVmkvvic9RvCsLUxG/sycpBZNYCO7++hvkwhFr+yqHskFumz2GMF+efL8s+uEoZMFTHZpuD9kIoXrSKG64IjhjyCuOGScKpVweaQgpdtElxJZmSNpweibt0SCi2/9lmKhNWTCoaSze+L2RLW+2UcEfTPmCRgwCnjzZCK3/sVzFUJyLSUYVe/3c3By++rl/HffgWb/Qp8tSJy/XUbeVmqhLUowpDJAkYaZLwZVLHlz2+dLmeqgPNtCtaHVPw1pOBps4TDstleu3TDhkhXHokd61ThrRAx06Vga1DBilNEgcX+WPZp7XLL8DQo2OyTcbRIwi+DKhbKBQh+H9v5n9vFkpw4tfQO3tv9yLL0TSSbQz9jSj5KB66g95YX/Te+Q2N7OVRLGVyIuAePoXzsewzcvo+eM27kplj9V4SDI7fgnn6I7tF2lLrvwO0uj0s4sMwOdF4fRfXQHfRfOYnCw0PonZ5Fa2Mu+PIHvW0OlA9fRd/0HAZuTqOl+zCSLf61s4+n84iXFvW62IkUS9viKZ+llKPqzG0cv623r8w9Ex4xbKtH/eQ9DEzfxdH+OqTEGdlmLAeVnoWAfdzGoRM1Qb5LtH6m5MFx3IMe3r83p9DSXYXkuO0Ljohy3nOP38dx98GAjYn4n2UcQ+edyyhNNXkSHENw3zyJbGP8UfJRMnAFfbd9GLg5heZjh5C0jf4P5Z3+/rIe1tSf1J+fi4FdIwz5w5FPp/7RJaEtQ0BZvoRHbjVoKpkLs9/7ZXiKBJSki5joULHRICLJ/wCUFUGLuhWVy/gYKgyZgPM9KnwHhMBAX1GjYNMlQmJMezhX1ar47aiExnQBJdki7vQpmDtgDuR29cfqNN6+yhpFa19HpoADWvkqlstMe3j+aMJQ94+C9VYJLTx/loiZPgWPHGb+g9UK/uiQUJcmoDBdxIWjKn6ujD89tv26MFzvkNCbKaA0V8LSgIo5vz/t7NPaNazgTJaA8x0qnh8RcbBMxpZbQnmc/tf904HJtS0szZ9FQYjwiW2/iMzu7zEwOYiCglzsLz2KlpsP0Vi1L8ADf/AP3PSg+nAR0vIqcXjcC/dQlZ8PAekd0xjynEZxYT4yKo+j9frD7QnDGQ8OFTlQOT6Hrr4qpLvOY+DqcaRr7ReRO3Af7rEu5BfmI63ICdcVL5prU+Kyj7ddTE7Hvv0ZSGmcxHCIMORr32KVz5iEvP57GOT+yc/F/oO9aL72MEwYusf74SjK8/vPh9b6tIB9dv6XUzM0+7iNuX3fBwnDROvX1vZ138bgxRMoKsxFWnEDXFfm0ObKiNO+YGHI27L/2HSQjbH4sPd/Lio9PjQfMXnL6Poe/QOVEP39n9kzg+PnepCbl4M0RwMarnjRcsT8BwJ29cfyP6WRqCAGiIF4GdhFwlAXbveL/dETxtDsCo8Y/tUsBtb9iAUy/nBLqAgRCEpxuDDkDqmoVvBnsy4keUTg2x4VdwqN+gSM9yqYyjWFYHGFgj8bzDWOXBjGU38k5/P6znapeFBklp9dIGG6TNQeDEaeaMLQSLdeq3gEtc60z+VU8cFl+sf6Xf7eLj30+9a/jYihVcg66xWs15nC0/p9/t5qn9auQRn1jIH7kQtK47M67cFo73+jfCklCylq9HqN71mvPGJVcXEeTdVSQCjoD+ZDgb/5g3foVF2gP4RDoxi8fhwZmn37UT6+gDanLtS4kCka8W1PGE6PaBuieD3NtSq0KOKU/pnVVuM9FwrWiGQs+4w8/CpWfxsmDK3pxntr+Yxx4WL6h/d33qA3TBi2uUwhyP03MHg44D+j3HiuoaIr0foZy9b7t8pcA5lc4Ua9yxGISMeyy5hKtq6hDLUxUf9zfw2eOuL/ocEjqHNoqNTt5e0/7PGivswcH1LbvsPQUHXAv/HWH6udlEbigBggBuwY2FXC8LJbwa08c2DkAsK6+ST0bz713FEUPN3LGxxNGArZEt4NymgWGNg+CSsnZHT5p1r5g/CyW8VfJ1T8OWy+PjbrEUVerl39LF3Cc0veP4dkNPtFq15+cPsidU4sYZiRI2Gum0+j++07oWLLZQrD5BwJL4dVvOmUcadOwmCuEIim8rrs0u3s51PJD/3CnZdXWRtcfyz7DBEYSRjyz+LxfyR/xfsZY8WouR784E1puY5hixDkD15jswUvl+0rRmGVQ/MhY/k4fNkHV4XJJ/++VbjFskUTgZGEof8znjeppBfNl+6i/3sfBmd8GJpZwMBAZZAwiGafte5owjBW+ZH8Y/VHJOEU6j+rDXbvQ0VXovVHym9ngzU9UvtCbbT6g+e18mEtK5r/WfEg3NNnkCcysP3tODYzjiJV50m3fwFDM3rf6/0/Hzef1vrpPT34iQFiIBEG9rQwjNbwaMKQCSJu9Su4kcOQXirj/7VLSAsSbipmHAKKUy0vy5rEUGEYWj8TBeRb86YKgSNDEhWGTBQxNaBisUJEWZpuX4dTCRKG3J6kZAHtpRI8TgWvh1U8KQ+OrMVKt7M/ljC0sy9eYRjL/6H+3s7fkYRDqLAJffBby+fCsOrK3ycMmXgQ9bceorXtIPZn5SA1KweF/XdjCkOrfdb3kYSJXfmR/GP1RyThFOo/qw1270NFV6L1R8pvZ4M1PVL7uI2Dw8ERO6swt+a3vo/kf57OxHLU37qPIyUi1PqLGPqmCUpg/OE/XB7CVaP3Pe9/7ZWmRv1hYK2T3pMQIAaIgZ1iYFcJw/FeFXZTydYIYjQnRBWGjKG1QcWbGhFdzcHr+7hw41PJd/1Ty7zspCQBpdsQhtHs4Z/z8s92B08l5xbLuH9QCExdat/TNsmEH1fDkiWsnJTRF4hwMrjqg4WhIASXxafCP7aKAXFql25nf0xhaGNfPMLQzv+GfYKcDEUyI3fG57Gu8U4lR3vwG8KhpVZ/UPP+zB96FDFiGGmq2y5iyNKO4tjdSTgCESR980OsiGG09kYSJnbl61OZOzOVHKn9obaGC0M+lfrp9Qf61zqVXDWIxqYDYVPJkewz+teYSub9yzefWCPCVqEc2h7r35H8z9P5OsiCIS/6usu1ZQjtDfsDok/3vw8NleZSByk1B/vTkgLfibd+qy30nsQCMUAMbJeBXSQMwzef+CJsPokmDPnmh7Rky+aTHhm1/PiXfQJSLTsTk4pk/NEt4/GggtPWHaeMgW8+2eqS0J4hwJEpYrqXi0dTgNhFDGM5X9t8Uqvgzy4JfPMJ39wy61bxuNQsn+dnkgjvCT1ymee3fx+f+hZETA8q+KFajxjWOGT43KYw5OV3NKl42yzhSLqAgjQBZ9pVbNSL2oPRLj2W7Zpd/l3J0aaSbe3ju62jrDHUp5Lt/a/ZkdKG8Z82seg9jXx/tMXOdt3+KJtPDpubAWI9ePlDPbvvLgbHe5CRJEHKaUXTdW+QcNDqSe3ExQibY2yFoViB+ikvjnYexv6sPGTXDKLl2v24I4Z8zaOSpm/u0DafePqRvZ//na6JaGZTfvjmjz60XAtfY+i+MAhHkbF5J3zzCYvS/tA+CheGoZtftlc/758M6+YTRyMars2h3ZkeEFYx+8d/TmPguJrD4cfVxOYjtv+N9kuHz2LwogdtUzdwMMO897XNMz0z/s1ROUgrqkP9Zb55xrQ/Vv1G+XQlEUAMEAOJMrBrhCFviPW4mldtEkacsdcYWhvPf+HzNYLGcTXG9eNJBZ5MywAsi/CdUPGxR4IjRFjw41YGXQreGsfB1IjIsRwXkYgw1NonC3A7FbzqV6MfV8MYSktlPOtX8fEkfyn4xn/ERXaehMVeBVv+o2j6akxhyMsX94m4elTB+2H9uJoXbTIaLBFPu3SrP0Pfc//Gihjy78eyzy5iyPPb+V/7TpILo4/X4Z0ZQHZI/4XaHPp34LiaKS8GbtxEU4TjaqJFDLW606pQ75nD8J15DFw5herhu+HCMLkBo8vh9tkJQ15+cpkbrZfvY+D7e+g61QZH9/Q2hCGfigw+DkY7tubuHVT7o+B25QeOi/nei94znSg/bq65NCJqze0NcF28h4Hbd3Gs3xn0o0vzUZT2h/ZF6DStltc4LucT62dqPg70e9B76xH6teN+wo+rYVHsM9qn+YwfcH39GpwNxYGNbty+WMJMn8qO7X+tjaoTLTMLGPb0BpaxGL7h9pcOXkPftH5cTUtXVdhxRbH4NMqhKwkDYoAYSISBXSUME2kI5aUb4XMwwAQJaloaJJEhyz0Lt7s0KCL1OWzY63XwHxl5/Q/Q1+0g39Hh0cQAMUAM7DIGSBjusg7Z6w/9L9l+bbpWm57NwL6sclRP+tDuNNeJfcltT7RtTFSRxH2XnoOMiuM4Nj0Dvhwi0XIpP/0gJAaIAWJgZxkgYUjCkB7OcTLAWAmOfKdPFw7N3EPXSCv2W/6zDA1O0QcnltKCo3cXtP9DfPzqFdTX5wdN05LvovuOfEO+IQaIgc/JAAnDOEXB5+wUqosGAWKAGCAGiAFigBj4JxggYUjCkCKGxAAxQAwQA8QAMUAMaAyQMCQQaDAgBogBYoAYIAaIAWJAY4CEIYFAgwExQAwQA8QAMUAMEAMaAyQMCQQaDIgBYoAYIAaIAWKAGNAYIGFIINBgQAwQA8QAMUAMEAPEgMYACUMCgQYDYoAYIAaIAWKAGCAGNAZIGBIIX+xgkFrhRm/bwajn5dml/xPHBFCddDyFwQDxSSwYLNB177Gwl+9fEoafIAz5f8A4cPwBrkweQ/o2/1/vXr/B90rbGUtH28wmpgYKIwpfu/S93k9k/957kFj7jPjc2/1n7cvP+X6vjM+f0yfbqWun/LfX798vRhg2OFX8b+Q/2uvjSRldIosoCLYDSbTvMpaE6gvP4b13CvkxhGHJNy/hm3BqdjCWi64HW7jQovxtdkWzdyc/j7ft8dT5d/qHpffj2osVdOVG5sAuPR776Ttf1sObPxQyXVdxe20LyyselITc2yy1Eh2ex5j9aR2+/1vBhRN1SPN/hzEFDTe38OS/vwe9zrnC+WNCATpnNzA1VAIhpA6Dqe3yuVPjC6u6Al+Etht27eYrq/DA+3ILj5+v44H3Ltw12VH9u5vbEck2VnMdvpfhfC2/9KEl1WRsJ8fnSHbs9s+Y3IrxZ1tY9o4iK8q9FasNO+W/SPcvU0vQMrGEe6u/wbeyCs83bciSzL6LZVeiaZUTvwbGpeWX9+G0+Y9dX4wwVFWG3H0CcrMlPP+bhWG8nfR3Cp94bdjN3/s7/ZPes4DHD0aQGWVwsEvfzX4j23ZekPIHguO4D97VFZw8ex9zIeKIsTTUX3sL7/RpHD7gQEHNCDwr7zDRov+vbMYEqGm5yMjiLweqxx7j3kMPKtLDB/6UlrvwPbmGg2p4mtG32+WThOG/weRUzf+ZeaWodM/i/rMFtGZG97Hh671wZUoa0jW28nF0egvfj9X6WcuAKnwZbdyJfuA/Dh76VjD13IvGff+cX0LvXz4+HBh7Dt+9SdSUFiHvYCfOzG/ghjvyjNZO+MJahpyarfNSMY7v95Iw5I77tkfF/WIhEFGrrFWx5RIDf1fXKthwSTjVqmBzSMHLNgmupODOZ6kS1mIIQ5bkxKmld/De7t/WLwrGCtE3F/yLbelya8A23gks7Qj6p9cwt/YrZm4Oo/38i/CI4UAnRh+8hm/1v7gxcQzZlsgmUx1oHPfhzsq69ovi0lgzMizpWh1R7Ge5I5h6chODnpfwLV7FkUYP7q6+gqfHEfjVzPZV4BiPePy84S+/CRmWQYULNe/FEXTcegbf2lvMTI+jYr/pX55uRESWvaeRHSK67MpP1D+x2m+9CRjLxrHZTdxw5wb1j/GdSOlMPoShhQ/47nih5i/G9qHG8xpzNzqRwhgSTTfqjnZNtHy7/NHqNT63y59oulFPtGui5dvlN+qNdv/z+7vj8nXU56nQIk+hwlBw4tSTJ+guMu8HBx/oJxuCGGNiLo6MP8GUpwe5ivndQP1qLU4/4YIyPSifkc6vEfn0zzhMDPZgzMvHj1f4brIHOf6IgyEMJwa78Y2W/hI3Jo4iyzJ+sKQStE4uYfZHPeI5PlSLVP89HDUidWfIjIrGyK/ZnXQQndd+gnf1V8x8N4S28y/hPX8k0E678SXW+BHP+BbswxK45zdxvlEK1M9Sa+G+9TMerm1i6elrTF8fwQHL80OL6HD/rL7HwsrPmDzpRFqc4yPLOYlbLxbRZvkhIFR68HDlKsr9ZSRSvtE2HtV2Xt+KuEQm1vgcj/9i2cdYMppuBT//+LPAulQnJl8BfmPwySNqMfxv+CDWNW9wBQ/PdaLj3jrO1Jl9z/PY9X8s/2n5bZ6fhl2R7990tN/ZgudYaoDHtLpzONNXCdG4B23aH9u/uj4ZbzLbHHF84jrhSxSGv/fL8BQJKEkXMdGhYqNBRJJFoNgKw9QOTK5tYWn+LAos+YxOjXblN2RyuhERyEXluWewCkPGZFROvMbCg0uoKXGgsO4sJh+/DROGD2cn0VDuQEHVCVxaeQ/PsUwNFMZEOEbXsOC9groyB/IO9eDc4gaudAeLGxbFfu3Gf7aA7oOVcM/+httnm1HUNQvf0gUUcmHDJFRMvMHDW6OoKjuAvINdOLv4DpNtesSDt5vfGAsr8xhsPIh8RwOOzyGLQnwAACAASURBVL6D91ITVL+fpBT9V0dOrxehwtCu/ET9Y/RLtPYb6fzKsobx3YvHOBYlWhAtXa25hvurD+BKY5DKJ3BnzYfWLPPhnmi61cZI7xMt3y5/pDqtn9nlTzTdWlek94mWb5ef1xmNH/7DVDAe4HxKMkQYhtrL79fKiTfwnqsJDPRa+dp05gf4Hj/B2b5DwWMTE1FwYgWL90eQYxEcYWVH4NcQft7Zi/r4cXgIF1c+4HJntn/80JeqeGcvofHgARTUjOLKT78F7m9+f/KIxcIDD2pLjfHnV4w3pen51Qzk5Bcip/02fCtTqOfv+SszVXtw2eZnAgpHVrE0/x1cZSUobpiAZ/ltmDCMNr7Yjh/8gRZjfLP6kAkqMmovYfr5CwyUmvdv0ak1LNw9i4OF+ch2uOD+/jVuDZYExt+SM8/x6PszqHQUIb+iF+cW13Gx3RTwscZHxorh9m3iYrvuT26PY1T/4cAf/JyXRMo32sf9FE0YxhyfbfxnZ19wRDwXWVXjmH7+C8aO7PP7z4YvvzD0Gs+/6tO4HMRnbP8wdggDi++x+CzkdeWYKaxYKlq//w3fNqooPvUUs2OHNNsM38Xqf/6dmP6L4/lp1BPp+aKPF2/hvdYZ9GMjkMeGD/v77ysXhn81i4FdpmKBjD/cEiosAs9OGOoAZCFFNSOTRuds51pwcjVEGOoDw3iz7L9RBFRdfBcmDK90ZwRgLT79DPOXmvzfL0CPdxMXmsw1iOnO8xjrrghE/Az7pJRw+zVh+PN1HGRME3iTbcnQPvvpmvaZkdd6LTnzImzgXrreAcnvT7HuJhaWJ1Bs8S/PL7fcDROG1nKN99byjYHzU/1jlMmvkdpvTc86/gSP7w5hf4jdxneipfPpwrqrb3B/3I3eexu4OWBGW3neRNON+qNdEy3fLn+0eo3P7fInmm7UE+2aaPl2+Y167fiJFDE08hpXIcuNK6vPMVBm/kLnaUxNR3Z+CUpbPJh69hInK837mWW6ceXpcwwf1D+ru7qF28OOwHhglB2JT0MYho4fC4HxQxeG13p1ocjLqhh/i4ff1vrHl0L0PtqEcf/xdE24+NdAG3VHW2PII6qx8jOWhWOzW7jcaUyty6i7+uGTxhfDlqDxgwubOMY3VjGJ+883sfziLa4OVgR+1Gr+uPAWc5eaAuObUQ+/MuaA27eO0RpTSOYOrmDR0xzoHy4MY42PfDxfvH4UiiYE+YN6A+dcqt//iZev2xldGBrtiTQ+2z0f4mm/UT6THOi5t4G75+sDP3zs+dD5vNqjB0J4WYeC+IztH76GNyXH/2PF+NHCrxnJgf5hUjO+XZtHaxqDWHMDvvsjyLA8Aypi9L/RNn6N5D9ruvHeyqfxGb9Gun/550L2MYwvf4Bvfg6jJ3pQlqlrBZ5m5397/37lwnDTaU4tM1VER5EQtI4sHmFo7cRPfR8uDA9h+EnwwMIHklibT7KPP8Hy9Q7/L/Lw/NuxLeqN7x9MeVlpVWcx+ei/8D31/+p6vhU0FWa1l3+fpR1CXVNlYCrJsCfajROrfP6LLxH/GHXbXRnLQ/fDTVzpzgoMGNY8tumZvfCsbuLx/ASKIywMZgmmW22J9D7R8u3yR6rT+pld/kTTrXVFep9o+Xb5I9UZ+pmdMGRJh9DvfYeZM9VBwsNaDv+FX+3ZwN1RPWrBWApqL7/Go6vt2Od/WEUShtH4NIShdfNa8PgRvrnNOpUU6f6z5jdsjy4Mw+9fa37GSnB8YRNnnaaw4uNJ6FSyMR7y+kLHl5jjRzRhaBnftDK1aO9NVKeYD12jberhi5h5toHZBw9x7ttzaK0p1ESclk8bn7aw9NwSkeIC0z8+8+/YjY/CoUt4sDqNKomBZQ7hxvN7qPdPVev+T6x83c4dFoZ+/8Vjn16/jOKTK5ifG4fDslTCjq9I/IbzGds/vP5YL3bwIh74ziKPC/OkTlx6/gANlqUCsfrfWu6nPN+M/NHu30C6nI2y1lGM3FqFb/X/0Ftq/HDg91f09tv7l4RhbDhs1hgaHZToda8JQybVY/THX+EZqEeB/xdX3cR/YwrDaD6KdOPYlR8JbOtAG2ngsD54otkS+jnLO43pF/Notaz1sX7HLl10nMXtVb7G83tUp5gPOaOMRNONcqJdEy3fLn+0eo3P7fInmm7UE+2aaPl2+aPVa/08ljBkYiFap1/jwY1uZFrX7wkq9u1PhWyZItYffC5tvGKsHmOrrzB00GQqojCMwq/d/REpPfzBG/zDNdL9lYgw7F/cnjAM8rnN+BTPD19eXqy+4+lqZiVqO09jcNKH2WcbuNZT4O8f/mB+i7OtIVEpS0TKOl5ZbTfeM/EIRlfeYqRKRGrHIyxNuwM/AvTxL7HytfbFmEo27Ig4PtsI63js4+WrhyYxs/YYnUUhkfIIP/ytfMXHZ3T/cPvsppJzBlaw/Pw9fGvr8K1tYOnFO4zWmoEkzf4o/W/4jl8j+s+GTyO/3fMl8D2moOSbNSze7Nairnb+19Oj3788osj3QHyBawwZho+qWCrTB07GGBqdKl7XmlO+fPOJNWJoONl6ZSkSVmNsPuHfFeRkKBGiQdZy7N6HC0MeCjenaviajO1NJetTNRea9F8QvP6MJg/G3ZVhU8mR7LcbOFnmML576UVj4BesoE01WRfP2w18hk8i3jg25euh8k/3j1E3v0Zqv5HOp3+Wvj+ubRgxPrNeY6UzoRDd9zYwNViLhhu/4t5EfVBEKNF0w45oU5mJlm+Xn+rXIw6x+OE+iiYumJCBGs9zPJoZQYElWqLlUY5h8sUq+vybU/SI4XpgnRNjToythS/eD51Kjsan8WANnUo2l6LYRQxjTwUbbLDDl8N2ZGvts51K1uu/1K5P7fHxr/rSRsyIoVGnVr7d+GEjbIyyGF8rmZcRiAQan/OrIEqBdaT8b+7r5Vu92j2uj08f8G2DKXiU9CIUZOpr6Pj37cZH3uc1nne4N3YE9dfe42qPOWuxE+VzG3gd0dYY8nT+ijg+2/gvHvtYcj1GH/8KT2de2DPJfqrTjk/+/Izuf7upZB6Rb57exGV3CbJzC7RX3eQr3Dl9MBBIitX/hu+i+s+GTyN/1PtXqETn9Suot6xZ1/rp0RhytKUHdu2Pff8yth/tM1u43GUs5RBwePJdYPwx7GM5e2zzCTf8QIWCP3tldGYKKMuX8MOQipuWc+jiEoaSCO8JFTMOAXn8+Jp9AvZZfsWzlDaM/7SJRe/pmGcQGo6Mdg0XhqGbT87h0nL4GkPvPY9l88kHeDosm0/GnmLRv/kkv6IP3z7ewJWunADY3JZo9tsKQ9GJsZ/Wcf1UEwrzHShr8eDS4zdxRwz55pF9mfrmG23ziW8CZdrxCdlIlhmYTfnhm0+25x+jH6K1X/MNK0KfbxOeY+aGGiNfPOkZXT7ML3lQIjMIucO48ewZBv3rwXj+RNM1G1I7cTHK5qdEy7fLT/XHuH+YhJRsf7SodQpzgQ0YWX7hoOLAyArml6fhKjY3oWVkpPiXgmSg6dY6Ht4aQUWxA45GD6aevsBguS40+K7O/fkO5BeZr47p4DWGLAa/hjA0Fu/n880nP/DNJ7r4MNKtU83BEUMRB8aeaZtPaiybT843mpslND4Kz2DmxRP0Hy7RN5+kJ/kjarHz88X15edeYWH2DIr3SVCLBnBh+V38wtBu/LARNtx2zX4xGalpyYENCYHPmYq6qxu4f30Q5cX5yCqsRvf0W3jH6/ynEOibH+YfXEItP06kvANj87/hSrc5/toJQ16X2jiDBa8PV376AZ05ZnTY2NyRaPnRhKHt+GzjPzv7OL+HL76Cb2YEDm3c1++B9FRjKtSODzthaO9/oy8jXZnUiLNrq+gtNH2uttzF0uwJ7Z9QMNv+T+z5xm2Kff9mofX7ddy7Maxtbsora8fJhxu4/22tf/yI3X7eP3b3b97AChZ9N1Bf5kDhkbO4vvoKp6vNQJNmo3oUE89/wdkWBzK1fsxEkmXmw/DtrjrHkIkCeupl/DKgYNOt4E65EDhOgRsclzBkDKWlMp71q/h4kr8UfGM9ADTJhdHH6/DODIQdt2I4JZ6rJgw9LcGiTTuu5inm1t7hztQpHLsQvsZwcqhXO05ifvUVbkx0IsfSKXw7etPEAu6sGMfJRDquJrL9dsKQt2l/7Tg8C28wv8aPahhC49jqNoShvgbCOK7GuC6/fIlBf5TXrnz9uJpP9w9vA4vRf6zoG8w8f4RGS39b+zJWOtvficmfX+Ob+hT/g1BC8amfsfToLApEhkTTDTtYcgNGl8P5S7R8u/xUv184ROHHmIoxuDauyy/voo6vGfPvqjQ+N67L82cDPzCF/XVwf/cjvE/fw7e8hNFjJREjV0ZfhE4lx+TTX/8FftzVw9fg48d3F8OPq4kmDHmdgeMutAO6f8QFy3E1hk2MZaL622U8fLqpHU1lnVGwy88ymjDq28Dyi00sLN7AoOdV3MKQ1x9r/IhnfONlFAysYOHZMo7lmQLBaJuQ1YwTM08x92wTS2uvMTN9IeicSa19l5Zxf/U9fCs/49JoE9ItQYV4hCFL5mvbtrDsX+tm1M2vO1J+lIihPtUYHpE2xud4/BfLvmj3R7x8GPePLZ8x/G/1Zeh7VjaB+6s3UGHpL63Nz+/D6Z8li9X/dv7j9cXiU+tfm+ePkFkP9/UfcO+n37D483NcnzyOQssayFj+18o3jouKcv8yuRCu8Xnc5cdRPfkB5/oqkWzZfKOVwSQUdM7g9sp7PH65heWXP6I7P/xe2VXCkBu+F158mqRy4i1mxyr3hL17wac7YWPhyVUs3uoJuxmMsu3Sje/RdW/ch19aP8Xi03iwWncV78b2M0FGSmYGVImh7NwveHiumsbIPfJc24087SWbYt2/e6kd3FYShnHetExMRhoPvWYXoth5ATdWX2C4wjyKYq91/JdmL98V2b/4AZNt5gGi1jbapVu/S+9JGH5uBuz4NIShNeLyuW20q886nZmZX4uBhx9wpctcZ2eXn9LpvturDNjdv3utXSQM4xWG+/txjYdeX3zAoyV9msg4+HmvdTrZSwMwMbC3GNgbwvAwTq7o05mPn73G9LUBFIZs0iHu9hZ31F9fZ3+RMIxTGNIN8nXeINTv1O/EADFADBADXxMDJAxJGNIaIGKAGCAGiAFigBggBjQGSBgSCDQYEAPEADFADBADxAAxoDFAwpBAoMGAGCAGiAFigBggBogBjQEShgQCDQbEADFADBADxAAxQAxoDJAwJBBoMCAGiAFigBggBogBYkBjgIQhgUCDATFADBADxAAxQAwQAxoDJAwJBBoMiAFigBggBogBYoAY0BggYUgg0GBADBADxAAxQAwQA8SAxgAJQwLhkweDeP6p/Nd0KCi1lQ7BJQaIAWKAGNjrDJAwJGFIwpAY+GQG9voASPbTQ5wYIAaIgWAGdo0wZEzAtz0q7hcLgYdUZa2KLZcY+JupAs63KVgfUvHXkIKnzRIOy8xMlwQMOGW8GVLxe7+CuSoBmcxMr65VsOGScKpVweaQgpdtElxJejqvf6xThbdCxEyXgq1BBStOEQWCmZ/JAkYaZLwZVLHVr8BXKyLHXz5LlbDmluFpULDZJ+NokYRfBlUslAsQjO/Y2MfhZElOnFp6B+/tfmRZbLcD1/hfqhODPRjzvoZv9RW+m+xBjmTazyN83osj6Lj1DL61t5iZHkfFfjOdJZWgdXIJsz+uw/d/KxgfqkWqxQaWdgT902uYW/sVMzeH0X7+BXwTzoD/7Wyk9OCbj/xB/iAGiAFigBjYbQzsKWF4sFrBHx0S6tIEFKaLuHBUxc+VupBkjKGqVsVvRyU0pgsoyRZxp0/B3AFT+HBh+Hu/DE+RgJJ0ERMdKjYaRCQxBkMYrndI6M0UUJorYWlAxdwBs/wGp4L1VgktmQIOZImY6VPwyOFP58JwWMGZLAHnO1Q8PyLiYJmMLbeEcq18e/s4HCy1A5NrW1iaP4sCiyizA8cQht7Zi2god6Dg8BAurnzA5c7sgHDjwnBhZR6DjQeR72jA8dl38F5qgqrZJ+HA2HMsPPCgttSBgqoTuLTyK8ab0rT8jMmonHiNhQeXUFPiQGHdWUw+fkvCkKKNAb7sGKV0egASA8QAMbD7GdhTwtDlVPHBJUKOIJi4sBvvVTCVawrB4goFfzaYEUcuDP9qNvOLBTL+cEuosAjD5TIzYumsV7BeZ/4dCnQVj0DW6eVrEcNBGfWMgdfDBaXxWZ2/fDv7jPKllCykqNHrNb5nvRrC8Ep3RuBBXXz6GRYuNQX+5sJw6XoHJL//xLqbWFieQLFmXyF6H21ivFkOfN8x+jwg/BgrhttnpnN/V118F0i32kLvd/+NT31EfUQMEAPEADEQiYE9JQyTcyS8HFbxplPGnToJg7mCFu3jDeNC5bJbxV8nVPw5bL4+NosBIcQF26bTFIpMFdFRpE83GxHDh8WmsAydys7IkTDXzaeh/eWfMKe6DREYSRjyz+KxL1IHxfuZIQwvtCgBYZd9/AmWr3dA9AvB0M0iLO0Q6poqkabZdwjDT9YxWmO235qfsfD00PLitZW+R4MRMUAMEAPEADGwOxnYU8KQQ5SULKC9VILHqeD1sIon5f6pXL8wnHEIKE61vJJNoRMqDK1Q2glDJoqYGlCxWCGiLE0vv8OpBNZAxisMY9lntWe77z9FGFrriCT8SBjuzpvW2m/0nvqIGCAGiAFiYCcZ2EXCkGH4qIqlMl3I8TWDjU4Vr2vNKVVBEALRL+4EPlX8sVVEsmWq9m6hKQSTkgSU7pQwTJawclJGn3+zC7fPVb89YcinkmPZZ3SsICdDsWwaMT6PdTWEYehU8nzIVHK0zSKM2U0lO2gqmdYTBqLRsVikNHpIEQPEADGwdxnYNcKQQ3SArwnsldGZKaAsX8IPQypu+tcMciHW0aTibbOEI+kCCtIEnGlXsVEvart+jc0nW10S2jMEODJFTPeqWPYLTV5+QhFDQcT0oIIfqvWIYY1Dhs+9HWGobz6JZR+3kaW0YfynTSx6TyM/wlrKaDebIQy9s5Pa5pN8vvnkB775JCvwMI819cuYiANjz7TNJzWWzSfnG6NtPjmHS8u0xjBaf9Dne3dQpL6jviMGiIGvmYFdJQyZKKCnXsYvAwo23QrulAtBx6WI+0RcParg/bB+XM2LNhkNloggP05m0KXgrXGcTI2IHMtxM4kIQw5Jdp6ExV4FW/6jcvpq4heGPL+dfdp3klwYfbwO78wAsj9BGF4Y6MTow9eY58fVXAw/riZaxFCv239czU/8uJofcSHicTVPMbf2DnemTuHYhZe0+YSiiIEfHpwhepEPiAFigBjY2wzsKmFIMH06TEbE0LqrmPz56f4k35HviAFigBggBr5GBkgYfiFRDkMYWnclf41AU5tpICcGiAFigBggBj6dARKGJAxp+u8LYYAGwk8fCMl35DtigBggBnQGSBiSKCBhSAwQA8QAMUAMEAPEgMYACUMCgQYDYoAYIAaIAWKAGCAGNAZIGBIINBgQA8QAMUAMEAPEADGgMUDCkECgwYAYIAaIAWKAGCAGiAGNARKGBAINBsQAMUAMEAPEADFADGgMkDAkEGgwIAaIAWKAGCAGiAFiQGOAhCGBQIMBMUAMEAPEADFADBADGgMkDAkEGgyIAWKAGCAGiAFigBjQGCBhSCDQYEAMEAPEADFADBADxIDGAAnDfxCE6loFm05xz96MJd+8hG/CGbCfMQmZrqu4vbaF5RUPShgLpPET5VlqJTo8jzH70zp8/7eCCyfqkOb/DmMKGm5u4cl/fw96nXMFl6GVIxSgc3YDU0MlEELqoJPr6b8XEAPEADFADBADn87Av/bt2xf08N6uM1NTUxPKv936vqTvf0nCkLEkOI774F1dwcmz9zEXIgwZS0P9tbfwTp/G4QMOFNSMwLPyDhMt+zV+GBOgpuUiI4u/HKgee4x7Dz2oSA8Xhiktd+F7cg0H1fC0L4kPasunD2zkO/IdMUAMEAOfxsC/qqurIQjCJ4u7nRKGXBiMdarwVkiY7laxNaRgxSWhSDAf/kwWMNIg482giq1+Bb5aETmWiBFTBZxvU7A+pOKvIQVPmyUcli35Y6QXVSh4WyuAMYbjbSpeVOnv+1pV3MjRy2CSgAGngtcDCjbdCh5UCsiw1M+F3oZLwqlWBZtDCl62SXAlWesXMdmm4P2QihetIobrwiOGLMmJU0vv4L3djyxL2XaAM5aLrgdbmBjswZj3NXyrr/DdZA9yJLN+HuHzXhxBx61n8K29xcz0OCr2m+ksqQStk0uY/VGP6I0P1SLVYgNLO4L+6TXMrf2KmZvDaD//IhAxZKwQHZevoz5PBavwwBsqDAUnTj15gu4isz7H2HP4JhuC2GNiLo6MP8GUpwe5ivldo/1MrcXpJ1xQpgflM9Lp+mkDAfmN/EYMEAPEADHAGdCEYSIw7LQw3OiQ0JspoDRHwly/iqVSXbRywdbgVLDeKqElU8CBLBEzfQoeOUxRe7BawR8dEurSBBSmi7hwVMXPlfGlS0Uy/mwWITEBl9oVvGgUITIB470KRpIZuHA9XKPg9y4Z7RkCSnNF+PpV3C82y+fC8Pd+GZ4iASXpIiY6VGw0iEhiPD+3X8UfXRLaMgSU5Ut45FbDppJZagcm17awNH8WBRZRZtdHhjD0zl5EQ7kDBYeHcHHlAy53ZgcEFBeGCyvzGGw8iHxHA47PvoP3UhNUzT4JB8aeY+GBB7WlDhRUncCllV8x3pSm5WdMRuXEayw8uISaEgcK685i8vFbizAUIPhFfCRhGGo/YyIqJ97Ae64mYB//jpb35Qf4Hj/B2b5Dmu+MvDxPwYkVLN4fQY7lB4ORTlca1IgBYoAYIAaIgcQY2HXCcLnMFFoV1Qp+b4i+Bq+KR+jqzHSXU8UHlwg5iqCKlc7SJbzqkpAviJhtknCzVUIeEzEzIKNJE04CznZzIWhGsSpqeMTPtJcLw7+azfrFAhl/uCVU+POf7zHzc6HY7AqPGHKgpZQspKhmufFAbgjDK90ZAaFVfPoZFi41Bf7mwnDpegckv3/EuptYWJ5AsWZfIXofbWK8WQ583zH63CL8iuH2melcKFddfBdIt9oYjzAUsty4svocA2VSoD5eBlPTkZ1fgtIWD6aevcTJSiWQzjLduPL0OYYP6p/VXd3C7WFHIN1qA71PbGAg/5H/iAFigBj4OhnYdcLwoUV4FR5S8FGL4uliLINHEbv5NK2KP4dV/HlCxZbLFIbJORJeDqt40ynjTp2EwVwhKOIUK53JEnwDMo6kSnhQLeJkqwxnsoSVbglFfmF32a3gVp4pDEPtC10zyFQRHUUCMqPkD/1+IjehIQwvtJhCKvv4Eyxf74DoF4Jhm0XSDqGuqVLbAMLYIQw/Wcdojdk+a/5I6aHlGfbbCUOWdAj93neYOVOtRSuNfNYr38hS7dnA3dFDmvBjLAW1l1/j0dV27PO3h4Th1zloWTmh98QAMUAMEAM7y8CeEYZMFDE1oGKxQkRZmoDiVAEdTiVIGHI4kpIFtJdK8PC1gMMqnpQHR96ipfMI2LV+GX3FMu4f0KN5AwUS3jbx6WV9Knm7wtAKKy8/NP8/LQyD7fs8wpCJhWidfo0HN7qRKZoilAkq9u1PhWyZItbXILr8wrAeY6uvMHTQzEPCcGcHAysP9J58SwwQA8TA18nArhOGoVPJRkSQ8ejdSRl9/s0kfCrWVR8sDPkmGiM6xoEurlDwsVVEsj/CFCudl3fymIJbThlXs5mW93qdrG1C4WVxYRfPVHK042d4/vHe+KaSBTkZimXTSDw3pxExDJ1Kng+ZSrYeL2Mtl28eiT2V7Eh4KpkJGajxPMejmREUhGwsYcoxTL5YRZ9/c4oeMVzH7JgRMXRibC38OBuaSv46By4ru/SeGCAGiAFiYOcY2HXCcN2/+aSETxsft2w+EURMDyr4oVqPGNY4ZPjcpjDkwq6jScXbZglH0gUUpAk4065io17UzrqzS+dQNToV/OKWMZzMIBfJeNmnYO6AHqHi+Y3NJ3zziLH55F6RGZGMFQHk+UM3n/gibT5JacP4T5tY9J5Gvl/QxgO8IQy9s5Pa5pN8vvnkB775JCuwBi/a1C8vn2/sODD2TNt8UmPZfHK+Mdrmk3O4tGyuMeRCLiW7EDn5hchpncLcyhTq+fv8LP/mFhUHRlYwvzwNV7FxLE0uMjJSNDHPWAaabq3j4a0RVBQ74Gj0YOrpCwyW62sQGUvG/nwH8ovMV8c0rTGMhw36zs4NmORL8iUxQAx86QzsOmH4sELEVJd+XM2PLgnFlqnF7DwJi72KdpQNP4qmr8YUhryjxH0irh5V8H5YP67mRZuMhmRz6tEunR9Z83FIRiOfOs6U8OakAk+mmV87rsblP67muIKHEY6riRYx5PbxNYfGcTWv2iSMOMM3n7AkF0Yfr8M7M4DsTxCGFwY6MfrwNeb5cTUXw4+riRYx1OwzjqvRDqD+ERciHlfzFHNr73Bn6hSOXTAPuOYRx7658Ije8su7qJP4VLx+nE7oAdbL82cDAljYXwf3dz/C+/Q9fMtLGD1WAiWGD2gqmQboL32ApvYR48QAMfC5Gdg1//mET7XycwwfWDaffG5n7OX6DOFl3VW8l9tDttNgSAwQA8QAMUAMfH4Gdp0wtO5KJiDiB8IQhtZdyeS/+P1HviJfEQPEADFADBAD/wYJw3/wfyXvJIAkDGlA20meqCziiRggBoiBr5OBXSMMCcCvE0Dqd+p3YoAYIAaIAWJg9zBAwvALiRjSTbV7birqC+oLYoAYIAaIgb3KAAlDEoaB42z2KsRkNw3AxAAxQAwQA8TAzjCQsDCkjtiZjiA/kh+JAWKAGCAGiAFi4J9mgIQhRQwpYkgMEAPEADFADBADxIDGAAlDAoEGA2KAGCAGiAFi932iuAAAANhJREFUgBggBjQGSBgSCDQYEAPEADFADBADxAAxoDFAwpBAoMGAGCAGiAFigBggBogBjQEShgQCDQbEADFADBADxAAxQAxoDJAwJBBoMCAGiAFigBggBogBYkBjgIQhgUCDATFADBADxAAxQAwQAxoDJAwJBBoMiAFigBggBogBYoAY0BggYUgg0GBADBADxAAxQAwQA8SAxgAJQwKBBgNigBggBogBYoAYIAY0BkgYEgg0GBADxAAxQAwQA8QAMaAxQMKQQKDBgBggBogBYoAYIAaIAY2B/w+KY/XA3CKIpAAAAABJRU5ErkJggg==;" vertex="1" parent="1">
                    <mxGeometry x="70" y="360" width="400" height="89.16" as="geometry"/>
                </mxCell>
                <mxCell id="30" value="" style="shape=image;verticalLabelPosition=bottom;labelBackgroundColor=#ffffff;verticalAlign=top;aspect=fixed;imageAspect=0;image=data:image/png,iVBORw0KGgoAAAANSUhEUgAAAloAAACICAYAAAA/MkXnAAAgAElEQVR4Ae2deVcTSdv/79dTd3en+2GVw74cQBZlF5KDrMoe2RRFbxcUjesoKIpKJAriM4yKIuOotzAKzvzG5z19f6e60+lOSLqDEAW8/shJSHVXXXXVp6u+dVWl+Ne///1v0It8QAwQA8QAMUAMEAPEwNYz8C9y6tY7lXxKPiUGiAFigBggBogBzgAJLYroUUSTGCAGiAFigBggBmLEAAmtGDmWZjI0kyEGiAFigBggBoiB7ya0GGOo2C/jqVNEJmOknEngEQPEADFADBADxMCuZ+A7Ci0BTU4Fy+0Sikho7XqwaBZHszhigBggBogBYoD2aJHgodkUMUAMEAPEADFADMSMATWixRQB51pkLA8o+GdAxqtGCRUObXmPMQEn2xV4yySMdypYG5Ax75KQLxjLf1U1MlZcEo43y1gdkLHUIsEVF5z+f0P/A/762ikhzxTRMvIXMdEhY61fxrxTRK4pf+YQcKJRxkq/gqUmCQO1MlZqxSCnsDgnjs9+hPd2L9JN+ZOaphkVMUAMEAPEADFADPwoBlShta9Kxl9tEmqTBeSliDh/SMGLckEVMroQWmmT0J0moDhTwnSvgtliLZ0bzoXWl14HPPkCilJEXGhTsFIvIs4veByygKwEAfmljohCa1nPP0vCbJ+C6b16+QyllTL+6XagM03A/jwJM25lvdBKasPowhpmH59GLgmtIBH6o+CicqljIwaIAWKAGPjZGVCFlsup4LNLhCOMQNGF1lyJIazKqmR8qTciSlxo/dNo3C/mOvCXW0JZSH5yQWShZc7fWSdjuVYXWgKG2gxhxzfVtzWsF1q8IaXEdCQqhp0/e+NS/amDIwaIAWKAGCAGfiwDqtCKz5SwNKjgfbsDd2sl9GcJgWiULrSmCoylwLz9Mr42ipD8QooLrVWnIbyYIqItX0DaBoSWOf/yGgVrLi0/Xv6FbgUTuUb56lJlyNIhgfRjQSL/k/+JAWKAGCAGiIH1DKhCizsmLl5Aa7EEj1PGu0EFz0qNiBLfo2UWQnZCK5KjrSJa5vxDhdZoDwmtSD6l79dDTT4hnxADxAAxQAxsFwZUoSUIAkRT9KmgTMbXZhHxjEGPaJmX9vjSoR5x4hUJjWhFqty3Ci0u9Hx7tYgWXzpsqg+/dCg44iFLRuQrkh30PT2AxAAxQAwQA8QAMfA9GPiXvufpQ6OEAykCcpMFnGpVsFInQjAJLX2zehHfDH/E2DPFjbQSWjz/5HjTZvguB2oStL+TREPIRY5oMRw4oG3WL5MZ4vdIeOgO86vDxBaMPF/FjPcEckyi8Xs4kcqgh5UYIAaIAWKAGCAGwjGgRrTEBBFXD8n4NKgd7/CmxYH6eD2CpB3vMFUmYqxDO97hN5eEAtPxC9ZCS8Blt6Ie7aAf8aAe83BMhifNXmhxo1m8iLEuBV+PKfjS44CnPozQinNh+OkyvBN9yCChRb86pDNhiAFigBggBoiBbcBAYI9WOBWmihz/OVoPTZvhI10by+95ZGxPvIB4kaGmVsFH/68SY1km5U2zE2KAGCAGiAFigBjYDANRCy3z0t5mCvyWe9XlR/9yY3aSgEsdCp6azvH6ljzpHnpwiAFigBggBogBYiDWDOwQoSXgWq+2/PjPoHZyfQlteqeQ8DYICcf6AaX8aRAgBogBYmBnM2ArtKiBd3YDU/tR+xEDxAAxQAwQAz+OARJaFBWhyBgxQAwQA8QAMUAMxIgBEloxcizNHn7c7IF8T74nBogBYoAY2C4MkNAioUWzGGKAGCAGiAFigBiIEQMktGLk2O2ipMkOmtURA8QAMUAMEAM/jgESWiS0aBZDDBADxAAxQAwQAzFigIRWjBxLs4cfN3sg35PviQFigBggBrYLAyS0SGjRLIYYIAaIAWKAGCAGYsQACa0YOXa7KGmyg2Z1xAAxQAwQA8TAj2MgJkLL6p9MR2pslilhtdeBKvqH0DSrIPFLDBADxAAxQAzsEgZIaO2ShowkYOn7HzeLId+T74kBYoAYIAa2RGgxRcRoi4xPAwreNIsYrJWx6hQDapw5BAzVO/C+X8FarwxfjYhMf+SKZTuwdkz7P4b/N/Q/0F9fD0tI1a+xuJ9DzBQB51pkLA8o+GdA+1+IFQ5mlC8J6HPKeNcnY9Ut42G5YOTNBJztUvCgQAhcX16jYM1l2M8jdCsuCcebZawOyFhqkeCKC86/p86B33tlrPrrlyUEp/c5HXg/oOBLr4zpSgFpIZE7FufE8dmP8N7uRXpIGj2o9KASA8QAMUAMEAM7k4FNCy3GGOqdCv7qkNCSKqAkR8IjtxIQWlq6jOVmCU1pAvami5jokfGoUBM2TGLITxJQsNehLh2288/8Fc8gMga7+zl4+6pk/NUmoTZZQF6KiPOHFLwo9+fPBFRUy/jS4UBrqoDiLBG+XkNYsSiF1pdeBzz5AopSRFxoU7BSLyLOb195tazWv43XL0PE3R4FcyV6+QyVNQr+PCThYIqAIjVdxvReQ4jxOrCkNowurGH28WnkktAKiF7qWHZmx0LtRu1GDBADxIDGwBYILQHn1IiQJhy4MGp0BUe0Qp1dySNEtUbEiKdvZI9W6P0up4LPLhGOMAKFC6nTnVxYGcKmrJrbpwuh6CJa/zQa+Yu5DvzlllCmCi0BpzsUPMw38s/IlTBeIvqFooCRbhljWUZ6QZmMv+uD6899ICWmI1HR7Ar1Gf1NnRYxQAwQA8QAMbDzGNgSoXXZLeNWtiEkQjfDp2ZKmO7ky24K/h5U8PfR4KU5Do6V0LK7Pz5TwtKggvftDtytldCfJajRJjVfJiDUvrz9Mr42ipD8QimapcOgpVBFRFu+tvzHhVxo/uYHQUtX8M9Rf915/QeVQPnma+nzznuAqM2ozYgBYoAYIAasGIi50GKiiLE+BTNlIkqStWXBNqcctAeKGxhJaEV7f1y8gNZiCR6+F2tQwbNSI2IVKoQ2K7TMDo1WaE0U+pdETUuj5nzoMz2oxAAxQAwQA8TA7mNgS4TWSLexNBe6dMjiJcwfc6DHvzmdp7vqwgutz2GOd4jmfkEQ1GU6HVC+NPe1WUS8vrRnuXTIMHhIwWyJFpHj9h10KnhXYyzhhUbo9HL4u740aV46zCpw4ME+zSaezpcO7+UZEb+4OAHF8cbfen6CIx6ytP57PZ3ed98DSG1KbUoMEAPEwO5mYAuE1vrN8D7zZnhBxHi/jF+rtIhWdaEDPncYoZUsYfGojNFMLfKTH+ePSNncz4VRW4OCD40SDqQIyE0WcKpVwUqdCMG/WV3fDM836+ub4e/nG0JqL98z1e1Ae5q2mf/XAQU3TXuqrIUWQ3mNjL87JPDN8Hyz+6RbwdNiQ7jxzfBrHZK6Gb8wTcR4N98sHyyoWGILRp6vYsZ7Ajlh9prRg7i7H0RqX2pfYoAYIAZ2JwObFlocDPPxDm9bJAw5gzfDZ2RLmOmWseY/eqGnOozQYgKaa2V8HNCOejAfr2B3v5gg4uohGZ8GteMd3rQ4UG+KGDF+vIPLf7zDERlTpuMdVPtFAV11DvzhP/7hbqmAJJPYsRJa6v0OAW6njLe9SvjjHRwC+l0yPujHW1SLyDQd/6DmEefC8NNleCf6kGEqm6fRi3xADBADxAAxQAzsTAa2RGhR4+/Mxqd2o3YjBogBYoAYIAZiywAJLYoYUcSMGCAGiAFigBggBmLEAAmtGDmWZgixnSGQf8m/xAAxQAwQAzuBARJaJLRoFkMMEAPEADFADBADMWKAhFaMHLsTVDbZSLNBYoAYIAaIAWIgtgyQ0CKhRbMYYoAYIAaIAWKAGIgRA98stJKSkqhRYtQoNLuI7eyC/Ev+JQaIAWKAGPheDJDQIrFEgpkYIAaIAWKAGCAGYsQACa0YOfZ7KWUqh2ZlxAAxQAwQA8TA9mWAhBYJLZrFEAPEADFADBADxECMGCChFSPH0uxi+84uqG2obYgBYoAYIAa+FwO7Rmjxfy5dsV/GU6eITPpfgTQz+ckENGMi0pouoLWvFvHblP+dYOO3dry7uW7f6hO6j4QMMaAxsC2Flt0/cQ7XeIwJaHIqWG6XULRNB5pwdtc7tX+i/X9D/4OvxxzoEBmJpJ9MJIXjYqPfMaYg58gE3OfbsWeT/Kd33UVvb5nKIWOp2H/hCRqqHJvmMlobY1V+OJ/q9Ts6OYPBuz70XruKOlc+HBv0YbR1C2cDfUeChBjY3QzsGqG1U0FVFIasBAFZGRIWSWhtejDfqRxsJ7u/p9AJV+/vWb4utJoPZiAhNRNplX1ou3MfdSUysUgTHmKAGNgSBraF0GKKiNEWGZ8GFLxpFjFYK2PVKQYqyCNcKy4Jx5tlrA7IWGqR4IozIj88nUeE1KhQp4Q802yUJUp4eUzGQLxxvZghYbnXgQOC9h2TBPQ5HXg/oOBLr4zpSgFppjzsyg83WJi/4/n31Dnwe6+M1V4ZvhoRWf6y9etYkoSFCEKLOQQM1Tvwvl/Bmv9+8/IoUwSca5GxPKDgnwEZrxolVDiM+tql6zaEe+eRwpPtCrxlIiY6ZKz1y5h3isg12W9ln1ovtwOeehmrPQ4cypfwR7+CJ6UCBL+P7fzP7WJxThyf/Qjv7V6km9omnM2h3zE5B8V9V9B9y4veG7/gYGspFFMefGB39x9G6ck76Lv9AF2n3MhKNPsvH/uGbsE9PoXO4VYUu+/C7S4N8BlanvlvltaG9uvDqBq4i94rx5BXMYDu8Uk0H8wCX+7m17K4QpQOXkXP+DT6bo6jqbMC8Sb/2tnH03lERo3KXGxHoqlu0eTPEktReeo2jtzW6lfinlgf0WqpQ93offSN38Oh3lokRhl5ZSwT5Z4nAfu4jQNHq4N8t9nymZyNwiMedPH2vTmGps5KxEdtX3DEjvOedeQBjrj3BWzcjP9Z6mG0372M4iSDJ6FwAO6bx5Ch9z9yDor6rqDntg99N8fQeHg/4jbQ/mbe6PPujoxQ++7M9v3hQosPNnz57K8OCS2pAkpyJDxyK+uE1pdeBzz5AopSRFxoU7BSLyLOP6A4ZEGNCuWXOvA1VGgxAee6FPj2CoGOs6xaxqpLhMSYOthV1ij485CEgykCijJE3O2RMb3X6Bi50LIq3wp+Xr/yalmtX1uagL1q/grmSgx7+P2RhJbmHxnLzRKa+P3pIiZ6ZDwqNO7fVyXjrzYJtckC8lJEnD+k4EV59OnW9mtCa7lNQneagOIsCbN9Cqb9/rSzT63XoIxT6QLOtSlYPCBiX4kDa24JpVH6X/NPG0YX1jD7+DRyQ4SEtf0i0jrvoG+0H7m5WdhTfAhNN6dwsDIhwAMfSPtuelBVkY/k7HJUjHjhHqj08yEgpW0cA54TKMjLQWr5ETRfn9qY0JrwYH9+IcpHptHRU4kU1zn0XT2CFLX+IrL6HsB9sgM5eTlIznfCdcWLxprEqOzjdRfjU5CwJxWJB0cxGCK0+N4hq/wZk5Ddex/93D85WdizrxuN16bWCS33SC8K87P9/vOhuS45YJ+d/x1Jqap93MasnjtBQmuz5at7ozpvo//iUeTnZSG5oB6uK9NocaVGaV+w0OJ12XN4PMhGKz7s/Z+Fco8PjQcM3lI77qC3rxyiv/3TuiZw5EwXsrIzkVxYj/orXjQdMA6Etivfyv+UtjMHZmq33dVu20BoaULoQYF/ds8YGl3rI1r/NIqBfRNirgN/uSWUhQy4csF6ocWBLauS8XejJsz4jPVsl4K7eXp5Aka6ZYxlGcKqoEzG3/XBEbVoyg/3cPDyTncoeJhv5J+RK2G8RFQ7Wv2eSEJLTze/V/IIX61hn8up4LPL8I/5Wv7ZLj30evPfekTLLAyddTKWaw0hZ76efzbbp9ar34E6xsAFKxdo+ne16kBj7389fykxHYlK5HL168zvPKJSdvExGqqkwMCrDXT7A3/zgWzgeG2gPYT9w+i/fgSpqn17UDryBC1OTfhwYZA/5NuY0BofUn+gwctprFGgRrnGtO/Mtuqf+cBrjphZ2affw9/FqrPrhJY5Xf9szp8xLgQM//D2zu73rhNaLS5DWHH/9fVXBPyn5xvNe6iI2Wz5jGVo7Vtp7CGLL3OjzlUYiJha2aUvHZr3oIXauFn/c3/1Hz/gF+48wjeN+nLNXl7/Co8XdSVG/5DU8gsGBqoC/o22fKt6UtruGripPXdWe24LoXXZLeNWttHR8AE5dOnQ/DdfamzLD17e4+BFElpChoSP/Q40CgwsQcL8UQc6/EtrfGC57Fbwz1EFfw8ar6+NWsSL5xtqT2j5LEXCounevwccaPSLQC3/4PqFe0ishFZqpoTpTr5s6rfvqII1lyG04jMlLA0qeN/uwN1aCf1ZQiDax8uyS7ezny8dTvmFMM+vvCa4fCv7dFEVTmjx76Lxfzh/RfsdYwWovh48kCU2XcegSVjxgUzf/M3zZQkFyKssVH3IWA4qLvvgKjP45NebhZCVLaqoCie0/N/xe+OKutF46R567/jQP+HDwMQT9PWVBw20kewzlx1JaFnlH84/Zn+EEyKh/jPbYPc5VMRstvxw99vZYE4PV79QG83+4Pea+TDnFcn/rKAf7vFTyBYZ2J5WHJ4YQb6i8aTZ/wQDE1rba+3/OGo+zeXT5501+FJ7/TzttSOFViRAIwktJoi41SvjRiZDSrED/69VQnKQEFIwUSigIMn0Mu3pChVaoeUzUUCO+d4kIfAT+80KLSaKGOtTMFMmoiRZs6/NKQcJLW5PXLyA1mIJHqeMd4MKnpUGR36s0u3stxJadvZFK7Ss/B/q7438HW4gDhUKoQOpOX8utCqvxE5oMXEf6m5NobllH/akZyIpPRN5vfcshZbZPvPncAO9Xf7h/GP2RzghEuo/sw12n0NFzGbLD3e/nQ3m9HD14zb2DwZHlMxC13y/+XM4//N0Jpai7tYDHCgSodRdxMB/GiAH+h8+EZiCq1pre97+6itZiSi0zWXS559nsKa23rltvS2E1ki3ArulQ3NEKxJwEYUWY2iuV/C+WkRHY/D+KC6E+NLhPf9SIs87Lk5A8QaEViR7+Pc8/9OdwUuHWQUOPNgnBJaq1OvUTfvrj3dg8RLmjznQE4jAMbjqgoWWIATnxZc+vzaLAbFnl25nv6XQsrEvGqFl53/dPsERD1kyIkv691bv0S4dRhpI9YG4qUYb+Hh75gw8ChvRCre0aRfRYsmHcPjeKAoDEQ5tM7ZVRCtSfcMN9Hb5a0tXW7N0GK7+obauF1p86ezbyw+0r3npsLIfBxv2rls6DGef3r760iFvX74Z3hyxNAvP0PqY/w7nf57O95HlDnjR01mqLju31u8JiCjN/z7UlxtL21JSJvYkxwWuibZ8sy30eecOytR2u6/ttoHQWr8Z3hdmM3wkocU3YyfHmzbDdzlQw49LSBCQZPrlUVy+A391OvC0X8YJ8y/KGAPfDL/WIaE1VUBhmojxbi7GjAHdLqJl9WCom+FrZPzdIYFvhueb7SfdCp4WG/nz+5kkwntUi6xl++1P4Eudgojxfhm/VmkRrepCB3xuQ2jx/NsaFHxolHAgRUBusoBTrQpW6kR1oLFLt7Jdtcv/q8NIS4e29vFfU0bYo6UtHdr7X7UjsQUjz1cx4z2BHH80wM52zf4Im+ErjM3JVgMZHyQzeu6hf6QLqXESpMxmNFz3Bg3EajlJ7bgYZrO+rdASy1A35sWh9grsSc9GRnU/mq49iDqixfeMycnaZnN1M7ynFxl7+N8pqihlNvmv34zeg6Zr6/douc/3ozBf/zHB+s3wLEL9Q9tovdAK3Yy/sfJ5+6SaN8MXHkT9tWm0OlMCQsWyffznhAWOd6hYf7yDNR/W/tfrL1WcRv9FD1rGbmBfqvHsq5v5uyb8P9bIRHJ+Leou8838hv1W5ev50/vuG5ypTXdPm/5wocVhMh/v8LZFwpDTeo+WGUA+A+V7rPTjHfT3r8dkeNJMHZpDhO+ogq9dEgpDBmp+PEG/S8YH/fiEahGZpp9Xb0ZoqfVzCHA7ZbztVSIf78AYiosdeN2r4Osx/pLxH/9PwjOyJcx0y1jzH93QU20ILZ6/mCDi6iEZnwa14x3etDhQb4rI2aWb/Rn6mfvXKqLFr7eyzy6ixe+38796TZwLw0+X4Z3oQ0ZI+4XaHPp34HiHMS/6btxEQ5jjHSJFtNSykytR55nG4N3H6LtyHFWD99YLrfh6DM+tt89OaPH840vcaL78AH137qPjeAsKO8c3ILT40lPw8QnqMQ/37qLKH6W1yz9wvMIdL7pPtaP0iLFnTY/4NLbWw3XxPvpu38PhXmfQJEb1UYT6h7ZF6LKceq9+vMQ3ls+UHOzt9aD71iP0qsdjrD/egUWwT6+f6jN+YOn1a3DWFwR+eMPtsxI62tKltf/VOipONE08waCnO7BtQfcNt7+4/xp6xrXjHZo6Ktcd72HFp54Pve+egZnacne15bYQWgTV7oJqN7YnEyQoycmQRIZ09yTc7uKgiMlurPNW14mL9uzeh+jpLCTf0UGQxAAx8NMwQEKLYP9pYP9W4aAuz6nLcalISC9F1agPrU5jn8235vsz3MdEBXHcdymZSC07gsPjE+DL3z9D3amONIEkBogBzgAJLRJaNOjZMMBYEQ78oi0PDUzcR8dQM/aYTt6nzjRyZ8oSm3Do3hP1/wgeuXoFdXU5Qcty5LvIviPfkG+Igd3BAAktm0GWQN8doFM7UjsSA8QAMUAM/AgGSGiR0KKIFjFADBADxAAxQAzEiAESWjFy7I9QzVQmzdaIAWKAGCAGiIHtxQAJLRJaNIshBogBYoAYIAaIgRgxQEIrRo6lGcX2mlFQe1B7EAPEADFADPwIBkhokdCiWQwxQAwQA8QAMUAMxIgBEloxcuyPUM1UJs3WiAFigBggBoiB7cUACS0SWrtuFpNU5kZ3y76I5zXZpVMntb06qY22B7Xvzm6/jbY3Xb+72ns3Pr8ktDYgtPgJ4XuPPMSV0cNI2eD/29vpncFOqTtjKWiZWMVYX15YAWmXvtPb6We3n9p3dw2634vnndK/fS9/bLScrfLfbn1+d7zQqnca/1D66zEHOkTjH0lvFBa76xmLQ9X5RXjvH0eOhdAq+s8SfBec6kDPWBY6Hq7hfJMcduC3K3O7pEdb92jsjaV/WEovrr2ZR0dWeA5C08sv/BfPfv+ivuaWHsD5nU98tyv/e/HDKq/AN+9BkQXX4dqWMRn1N9cCPtR9ecal+d8unefJEvbj0KVZTD5fhu9/n2P0eD1SwzzHiQ138ch3DgUWbRTavuFsNn+3Vf79Vv+ZbflRn1mZB96lNTxdXMZD7z24qzMgbJCDH2W7Xbms+jp8S+v5nFvyoSnJ6CO2sn+zs2k7pjNHM0Zer2HOO4z0b2j7rfJfuOeXKUVoujCL+y//hG/+JTz/aUG6ZLRdLP1p1z9HW/aOF1qKwpCVICArQ8JijIVWtE6NpZCI1obtfF0s/ZPS9QRPHw4hLUJnEZruSMpAanoWUstGcOcHCC278rdKCNjx8K1Cgf+jaCU5S/NheiGqTj7F/SkPylJ0oWWXrqD8wlv4Js+jurgQuZX9uPDsT1zpyAqamDCpHEcf/wb3Xuv/kxjavrb13qKJ0Lf6z86+75HOHElq+6VlF6PcPYkHr5+gOe37DGSxrh+Tk5HCn+/0HBwaX8OdkzV+VlOhCLujjlvhQy62p3zzGFv04mDCj/NL6PPL+5e9Jxfhuz+K6uJ8ZO9rx6nHK7jhDr9isRW+MOdh1z+br7X6/MOFFnfk2S4FDwqEQMdaXqNgzSUG/q6qkbHiknC8WcbqgIylFgmuuGAYWJKEBQuhxeKcOD77Ed7bvRtS7IzloWc6eEY0e7k5YBt3Lks+gN7xBUwv/BcTNwfReu7N+ohWXzuGH76D7+XvuHHhMDJMM3amFOLgiA9355dVxX7pZOO6GX0k+1nWEMae3US/Zwm+mas4cNCDey/fwtNVGJiVsoQyHPY8xeSLFX/+DUg1dTJc+HgvDqHt1mv4Fj5gYnwEZXsM//J0PVIx5z2BjBARY5f/Zv2j+jiK9mMsA4cnV3HDHTxI6w+AVbrqxwhCi8UVoXl0FpO/8YjLPEYGapBk8oFd+9n5R60fb8cw5etC60J/J/7j5fws4caFQ0g382NnX1IN3LdeYGphFbOv3mH8+hD2+p+fiDP+uwNINtfRxv9MzMKBkWcY83QhSzbYCfg+Qjpj+zH47B2OlhnPf6p7Fk9vdkI2lZ/e48ONoyUQTd/peevv4drX8F8XTqr+e4tfRruQ6Z8RG+nf5t9o/GfLT9w+tF97Du/L/2LilwG0nFuC99yBQB9j93xa8RVN/6D7j7/z/+vpfryKcwelQPnMgh/1Hh5x4M/Hy094Mv8Co8ecSI6yf2GZx3DrzQxa/MKc5yeUezA1fxWl/jzUiMY35q/XjS9tOa+vhd1SYNW/ReM/K/sYi0fDreDxg/el5q0NVnxExaeN/3UfWL1n989j6kw72u4v41St0fb8Hrv2t/Kfer/N+KPbFf75TUHr3TV4DicFeEyuPYNTPeWBvsDK/2r5Fv2jPr6PNBh1LuTCbrQ+UJ6aR4T+Wbfd7n3HCK0vvQ548gUUpYi40KZgpV5EnKnTtRVaSW0YXVjD7OPTyDXdZ+cg/oDGp+gz9iyUn3kNs9BizIHyC+/w5OElVBcVIq/2NEafflgntKYmR1FfymfsR3Fp/hM8h9PUhmRMROHwAp54r6C2pBDZ+7twZmYFVzqDxQKLYL/aEbx+gs595XBP/onbpxuR3zEJ3+x55DEGbn/ZhfeYujWMypK9yN7XgdMzHzHasicAEn9Qnsw/Rv/BfcgprMeRyY/wXmqA4veTlKhFfTK7vQgVWnb5b9Y/evtEqr+ezt9Z+iB+efMUhyPMxq3SIwktXj8+o3ry0IMaNeLC2++/GGlIjqr97Pyj2x+5fG3p2Tt5CQf37UVu9TCuPA6cuc0AAB89SURBVP8z0H529vH8848v4Mm909iXl4OMQhfcd97hVn+RZr+SisycPGS23oZvfgx1/DN/pSUFOjLVtxH4C9ivLj99hu/pM5zu2R/0bKr3R0hnzImTCy/Rk2+IM6XlAeZMQo/FN+LM43lcmVyEb+Edxi73Ik8xrg/YEKb99YHKO3lRe/4qBnBx/jMut2f4229z/mU2/rNrHz7RzBt6idnHv8BVUoSC+gvwzH1YJ7QiPZ92fNn1D7rv1DYSFKTWXML44hv0FRv+teSHiSg6tYhHd06hvDAfOWXdODOzjIutKVH1L4wVwO1bxcVW7XnidhQOawMdF9W8f9xM/nr9uJ8iCS3L/o0PsJb9q7V9wRHfLKRXjmB88Q+cPJDg58+uf9H59I8fVSdwOej5tyt/P/pmPmHmdcjryuHA881YEprv/ImzBxUUHH+FyZP7A23H/WfV/jzd0n9RjD+BNgr7/Ioov/AB3mvtQeI9cI8NH/bPnxZIIaH173+DR7T+aRQDvyITcx34yy2hzCSY7ISWBkQ6EhVj5qw31kbec4+9DBFaWkcx0qgtafAHq/Lix3VC60pnagDeghOv8fhSg/9By0WXdxXnG4w9XCnOczjZWRaISOn2SYnr7Vc70hfXsY8xcME02hIP9bvn19Tv9HvN70Wn3qzryGevt0Hy+1OsvYkncxdQYPIvv9/RdG+d0DLnq3825693pN/qHz1P/h6u/ub09CPP8PTeAPaE2K1fY5UeWejkofvRKnT7eV7qQBDYgxd9++l2mP2jfxe5fK2jvdatCQN+fdnIB0ydrfHzY22fev35D5i+1BBoX71M83s0S19W/mdKCjJyilDc5MHY6yUcKzd45uVESjeE1h7UX/sdYwOlCBVafLbtHT+KvXvikZDbilNPVnHvZPm65yNc++pCK/T5exJ4/jbvX7V+Efa48RmzNT/pODy5hsvt2sSHT0xqr37+pudTb08zX9H2D6xsFA8WVzH35gOu9pcFJlk8zzILfhgrhNu3jOFqQ5hl9c9jxtMY6O94v2TVv/D+cOb6ITWCqUUYVnDGpfj53nz+avtYCC3db+H6Nzv/RVN/PX8mFaLr/grunasLTETs+dD4vNqlTcx5XvuDnn9r//A9komZ/smTPoni76nxgfZhUiPOLjxGczKDWH0DvgdDSDX1oVbtr9eNv4fznzld/2zmU/+Ov4d7fvn3QsZhjMx9hu/xNIaPdqEkzdg+YOd/e/+S0AqAwIXWqtNYSmSKiLZ8IWgfTjRCy9yo3/p5vdDiSx/BHQ3vWKw2w2cceYa5623qjEJbOgm+fyO2RewI/OKL55VceRqjj36H75V/VrO4FhQaNdvLr2fJ+1HbUB60dMS/j/QgWeUfrn7m8vSB0PxjAbN/ovUFY9nonFrFlc70ADfme23TI4SGw9lvti9curlc/tnKP/q1dkLL7B9zaDtc+Wb7eP5KxUVMvF7B5MMpnDl7Bs3VeUHLcvyaaISWbqvVO59BVnlWcG84eFas3xOabggtBjF+DxIcLEhoMVaBY78+R1eOMZDHNU9i9ul55JsGg0jta8dXuPSN+tfKf3btw5fqjjxZxWmnUT/+fIQuHer9iVpWyPNpxVc0/YOaJ484zt9EVaIxiOltZsWPVr81zC6aIiZcsPn7N56H+XkPZ7+w/xIevhxHpcTA0gZwY/E+6vSlbXVpeXP5q2VutdDy96/R1F8r34GCY/N4PD2CQtPSuj0fmtCyfv6t/cPLt3qxfRfx0Hca2TyCGNeOS4sPUW/ammPV/uZ8v2V80O+P9PwG0h0ZKGkextCtl/C9/F90F+tCnI+/ketv718SWgE4QoWW7nzzOwmtkIiW3hFIdRj+7b/w9NUh1z+jqb3wu6XQMvvV/Dncg8Rs8g8HurnjDTfQhQoFsw2RPrPsExh/8xjNpr0e5mtt02MktOz8o9sYS6HFy1DSylHTfgL9oz5Mvl7Bta7cwPPF079VaDFBQcKeJDhMe3I0oeJS87dNt1k6VAfekL1rbP8leF/ewH6z0IrQ/nZ8hUv/3kKrd2ZjQktnRm03u+ePcx0u4m2aiKn5qEIr8q9OI/GjPd8fcLo5JGpiipiYn3ez7fpnJh7A8PwHDFWKSGp7hNlxNxL8bbsV+av1i6nQsq4/L1/ZP4qJhadozzf2Aml2rZ+om/u/6PiMXD73n93SYWbfPOYWP8G3sAzfwgpm33zEcI0R2FDtt+k/+DXfMj7w+1Q/RHh+9XT9nUfoiv6zgJmbnWpU0I4PLT04kBHs359GaDEMHlIwW6LN6BhjOOhU8K7GWOKLSmglSnhpsRmeN5TgiIe8yZ+Fro9o8dCtsbS08aVDbWnhfIOm0LmdqQ0ejLjXL42Es99uxsrSBvHLkhcHAzNEQV16Mm/2s+sIdcjDPkg2+Wuh3W/3j162Xfvx5YrZO0eQaBp8zffapbPMSJvR7ZZ+rNsvGv9zOyOXbzejtbZP9ZsoQTAJIe6LuVvdQctDrOIypm2OdwjLn3wYo2+MPVZaxGo5sM+D2aVH2Aw/N6bZx5KP4NrSa/QWGf1BUvs0nnqHg36UEal99YEqdOnQWLrfvH/V9ovgP/ulC638S63aUg7vP6ourVhGtMxc2/Fl1z/oeal7zbJT10U67fjRnu/POFtvCAg5JR+5adoeJH6/Xf/Cman2fMT9kwdQd+0TrnYZUemtyJ/bwMuItEdL90HY/s1GqEZjH4uvw/DT/8LTnr1uuTtaPiJHtPj4E9n/dkuHjCWicXwVl91FyMjKVV+1o29x98S+wERMiKL/4D4M6z+b8UH3fcTnVyhH+/UrqEs3Ir5qOY9OIlPdw2dXf+v+kbE9aJ1Yw+UOfeleQMXox0D/pdsXqX/W0+3ef/hmeG7g3jIZf3c70J4moCRHwq8DCm6azkGKSmhJIrxHFUwUCsjmxz0kCEgwDS4ssQUjz1cx4z1heQaWncPWC63QzfBncGlu/R4t732PaTP8Z3jaTJvhT77CjH8zfE5ZD84+XcGVjswA6NymSPbbdaRMdOLk82VcP96AvJxClDR5cOnp+6gjWnzPSEKa9mMAdTO87wJK1J9LZyDewWCX//rN8Bvzj94ekeqv+oblo8e3Cs9hY4O/fl806eo1yiFcWPwDp5sKkabWLw1xorYZd+/J1+pmeO34AW0z/LmDps3wFu1n5x/dThaxfDshIMLaPgW1V1fw4Ho/SgtykJ5Xhc7xD/CO1AZ1+izvFCbePENvRZG2GT4lLjr+WCoabi1j6tYQygoKUXjQg7FXb9Bfqg28zDY9zPEOc59xvSdHm+myDLRMrMD30IO6kiLk1Qzh0q9/4kpndsA+ZtH+utDy+n+MksM3w//KN8Nrg7meHnkgs/ZvoP0i+I9v5rZuHxGlZ97iyeQpFCRIUPL7cH7uY/RCy+b5tusfAvaL8UhKjg9skA58z6z50TerP354CTX85/elbTj5mLeP0X/ZCS1elnJwAk+8Plx5/ivaM41BdavyjyS0bPs3W6GlbUaPVH/+q8OKi2/hmxhCodqvaH1pSpK+9GXHh/3zz38sEKl8vR0jvTPpIE4vvER3nuFzpekeZiePqodyM9v239z4wO2yfn7T0XxnGfdvDKo/tsguacWxqRU8OFvj33pj539r//Lys/vmMeO7gbqSQuQdOI3rL9/iRJUR+FBtjNA/R/Jr6PfbQmgxUUBXnQN/9MlYdcu4WyoE/Xw+KqHFGIqLHXjdq+DrMf6S8R/zgXRxLgw/XYZ3oi9oJhzqELu/VaHlaQp08vx67fiCV5he+Ii7Y8dx+Pz6PVqjA93qz/Mfv3yLGxfakRny8/yGC09wd14/fiHc8Q7h7Y+mI91TMwLPk/d4vMB/2j+AgydfbkBoaWvg+vEO+vvc0hL6/VFIu/w36x/Vxxbtx/L/g4nFRzhoam9zO9qlq/kzCbntE7g9/wlPl9Ywt/QbOv37ggI/v1YP1PwN50OPd4grglX72fnHqnw7IaD5xn/8RAT7hPRGHJ14henXq5hdeIeJ8fOBc650PzGWhqqzc5h6taoe5WGOeGplhOePpwl7auH+5Td4X32Cb24Ww4eLgiIjdun8wNLDnlncf76CJ78twHOyKeh4EyG5Bt3X5/Hw5Sc8nv8NF47WBf0Cyap9A/7jx6tMvQN//n65uP54h0hCKxr/qtdY+M+Wn9QGDPtWMPdmFU9mbqDf8zZqocXLtuIrmv6B55HbN48nr+dwONsYcPn3/GXHj1q/S3N48PITfPMvcGm4ASmmSW40QovF871Ba5jz7xXSy+bvW5J/hIiWtrS0/vgFvX+Lxn9W9vGIVejxQLwPNT9fVnwE+DUdeG1e2o7GP2Zfhn5mJRfw4OUNlJnaS63z4gM4/asgVu1v5z9enhWfqv02/beQVgf39V9x//mfmHmxiOujR5Bn2kNm5X81f/14hwj9I3PkwTXyGPf48T3PfsWZnnLEh6yMcKEeaXwI9Wm4v7eF0Apn2Hb8jof1+U9NJ0+WBwmt7Wjrz2RT3rGXmLnVte7h0H1gl65fR+/Wm2a3q3+s2lcfqMy/Gt2O9WCCA4lpqVAkhpIzf2DqTBX1MTabuLdjO5JNG+9DrJ7f3eJPElo2DzMT45HMQ74ZeShwnseNl28wWBb80/XdAsNOrAf/1VbvzGeMthgH2pnrYZduvpY+b7yT/NE+s2tfXWiZI1Y/2ubQ8s3LV2k5Neib+owrHcY+pdDr6e+dxym1Wfg2s3t+d4vfSGjZCa09vbjGl5LefMajWW1ZRD/Ic7dAQPUI3wmQX3a+X3aG0KrAsXlt+erp63cYv9aHPNMRAMThzueQ2vDnbkMSWjZCix6Qn/sBofan9icGiAFigBjYDAMktEho0V4QYoAYIAaIAWKAGIgRAyS0YuTYzahfupdmT8QAMUAMEAPEwO5ggIQWCS2axRADxAAxQAwQA8RAjBggoRUjx9JMZHfMRKgdqR2JAWKAGCAGNsMACS0SWjSLIQaIAWKAGCAGiIEYMUBCK0aO3Yz6pXtp9kQMEAPEADFADOwOBkhokdCiWQwxQAwQA8QAMUAMxIgBEloxcizNRHbHTITakdqRGCAGiAFiYDMMkNDaJUKLVV6Bb96DopB/hrkZOMz3xjp/c1n0mTo1YoAYIAaIgd3CAAktElpRhYtJaFGnt1s6PaoHsUwMEAPfk4EfLrQYE3C2S8GDAiEw4JfXKFhziYG/mSLgXIuM5QEF/wzIeNUoocLBjHRJQJ/TgfcDCr70ypiuFJBmiuxU1chYcUk43ixjdUDGUosEV5x2Py//ZLsCb5mIiQ4Za/0y5p0icgVT/g4BQ/UOvO9XsNYrw1cjItOfP0uSsOB2wFMvY7XHgUP5Ev7oV/CkVICgX2NjH29wFufE8dmP8N7uRbrJdjsYWPV1+Ja0/5P27Pcv0F9zdweQrJevFKFpdBaTLz/hyfwLjB5zItlcv6QauG+9wNTCKmZfvcP49SHs1f0TRf52NlI6dWrEADFADBADPysDO0Jo7auS8VebhNpkAXkpIs4fUvCiXBNmjDFU1ij485CEgykCijJE3O2RMb3XEEpcaH3pdcCTL6AoRcSFNgUr9SLiGIMutJbbJHSnCSjOkjDbp2B6r5F/vVPGcrOEpjQBe9NFTPTIeFToT+dCa1DGqXQB59oULB4Qsa/EgTW3hFI1f3v7OHwsqQ2jC2uYfXwauRsRWkoqMnPykNl6G775MdTxz/yVlgRRLV9E0alFPLpzCuWF+cgp68aZmWVcbE0JCNX84wt4cu809uXlIKPQBfedd7jVX6SmM5v8f9YHh+pNgwYxQAwQA8RANAzsCKHlcir47BLhCCNAuFAa6ZYxlmUIq4IyGX/XGxExLrT+aTTuF3Md+MstocwktOZKjIias07Gcq3xd6gjK3mErFbLX41o9TtQxxh4OVyg6d/V+vO3s0/PX0pMR6ISuVz9unDvkZb2GCuE27eM4WrDP1n985jxNAaEVtn5D5i+1AApjH/1siLlr6fTO3U4xAAxQAwQA8TAegZ2hNCKz5SwNKjgfbsDd2sl9GcJajSKNygXWpfdCv45quDvQeP1tVEMCAcugFadhvBiioi2fG15UY9oTRUYQiR06TI1U8J0J1929Od/1Fja1EVVOKHFv4vGvq0AM5IQYmw/Bp+tYXbxE2Ze+1+Lq5i73qZGvHjZSsVFTLxeweTDKZw5ewbN1XmQQ0RXpPy3wnbKY/2DST4hnxADxAAxsDsY2BFCi8MWFy+gtViCxynj3aCCZ6X+pTu/0JooFFCQZHrFG8IpVGiZ4bUTWkwUMdanYKZMREmyln+bUw7sIYtWaFnZZ7bnWz9HEkKa0PqA083+JUV9aTE1PhDR4mUqaeWoaT+B/lEfJl+v4FpXblB6pPy/1V66b3d0INSO1I7EADFADFgzsA2EFsPgIQWzJZow4nuuDjoVvKsxltAEQQhEX3iD8qXBr80i4k1Lc/fyDGEVFyegeKuEVryE+WMO9Pg333P7XHUbE1p86dDKPh1SwREPWTLqoX8fzTuruIzpMMc7aEuHn3G2XgoIJzklH7lpCYG/BVGCYNocz5cW5251QzFFtSLlH41tdI31Q0j+If8QA8QAMbB7GfjhQovDtZfvqep2oD1NQEmOhF8HFNz077niwqatQcGHRgkHUgTkJgs41apgpU5Uf9Wnb4Zf65DQmiqgME3EeLeCOb9w4/lvKqIliBjvl/FrlRbRqi50wOfeiNDSNsNb2cdtZIktGHm+ihnvCeSYBE60Dx/LO4WJN8/QW1GkbYZPiVOFFGPaZvjHDy+hpjgf2aVtOPn4T1zpzPSnK6i9uoIH1/tRWpCD9LwqdI5/gHekNvCrSdW+CPlHax9dt3s7EWpbaltigBggBiIzsC2EFhMFdNU58EefjFW3jLulApJMYkNMEHH1kIxPg9rxDm9aHKg3RayYQ0C/S8YH/fiFahGZpgjNZoQWhycjW8JMt4w1/9ESPdXRCy1+v5196jVxLgw/XYZ3og8ZprpHCy9jaag6O4epV6vqEQ++0fpAxIrFFaH50hwevPwE3/wLXBpuQIrJP0J6I45OvML061XMLrzDxPh5lKUER9as8o/WRrou8oNIviHfEAPEADGwOxnYFkKL4NqdcFG7UrsSA8QAMUAM/OwMkNDaJSfD/+wgU/2pMycGiAFigBjYjgyQ0CKhFVhi3I6Akk3UcRIDxAAxQAzsZAZIaJHQIqFFDBADxAAxQAwQAzFigIRWjBy7k9U32U6zR2KAGCAGiAFiYGsYIKFFQotmMcQAMUAMEAPEADEQIwZIaMXIsTQT2JqZAPmR/EgMEAPEADGwkxkgoUVCi2YxxAAxQAwQA8QAMRAjBkhoxcixO1l9k+00eyQGiAFigBggBraGARJaJLRoFkMMEAPEADFADBADMWKAhFaMHEszga2ZCZAfyY/EADFADBADO5kBEloktGgWQwwQA8QAMUAMEAMxYoCEVowca6W+rf7JtdV9Vmms8gp88x4UfcM/pLbKV0+zyp8xCWmuq7i9sIa5MDawpHK0eZ5i8vkyfP87j/NHa5Hst5MxGfU319R/hP3s9y+B9zOu4H9qze1gQi7aJ1cwNlAEIUb11OtL7zSDJgaIAWKAGNgKBkhokdCKahYTSWgxFofCIz54X87j2OkHmA4RWowlo+7aB3jHT6BibyFyq4fgmf+IC0171HIZE6AkZyE1nb8KUXXyKe5PeVCWsl5oJTbdg+/ZNexT1qdtxcNAeVCnSgwQA8QAMbDVDPxwocUH2pPtCrxlEsY7FawNyJh3ScgXjMGUOQQM1Tvwvl/BWq8MX42ITFNEgykCzrXIWB5Q8M+AjFeNEiocpvst0vPLZHyoEcAYw5EWBW8qtc89zQpuZGp5MElAn1PGuz4Zq24ZD8sFpJrK5xGqFZeE480yVgdkLLVIcMWZyxcx2iLj04CCN80iBmtlrDrFIIHD4pw4PvsR3tu9SDflbdfgrPo6fEvrI0JzdweMqJFShKbRWUy+/IQn8y8wesyJZLN/k2rgvvUCUwurmH31DuPXh7DXb79d/ozloe3yddRlK2BlHnhDhZbgxPFnz9CZb/ij8OQifKP1wfUXs3Bg5BnGPF3Iko1r9fozpQYnnnGBlhJ0n55O79Q5EgPEADFADGxHBraN0Fppk9CdJqA4U8J0r4LZYsEf8WCod8pYbpbQlCZgb7qIiR4Zjwq1dO7UfVUy/mqTUJssIC9FxPlDCl6UR5cu5Tvwd6MIiQm41CrjzUERIhMw0i1jKJ6BC8GKahlfOhxoTRVQnCXC16vgQYGRPxdaX3od8OQLKEoRcaFNwUq9iDjG7+f2K/irQ0JLqoCSHAmP3Mp6oZXUhtGFNcw+Po3cjQgtJRWZOXnIbL0N3/wY6vhn/kpLgqiWL6Lo1CIe3TmF8sJ85JR148zMMi62GoIl//gCntw7jX15OcgodMF95x1u9Rdp/rfNX4DgF23hhFYo9IyJKL/wHt4z1UGCSb136TN8T5/hdM9+1Xf6vfye3KPzmHkwhEyTQNTT6Z06V2KAGCAGiIHtysC2EVpzJYZwKauS8aU+OOJjdmAljyDVGukup4LPLhGOCALFKp2lSHjbISFHEDHZIOFms4RsJmKiz4EGVagION3JhZURZSmr5hEpw14utP5pNMoXcx34yy2hzH//uS7jfi68Gl3rI1q8flJiOhIVI19zne0+R17aK4Tbt4zhasP+rP55zHgaA0Kn7PwHTF9qgBTBf7zsSPmb7YpGaAnpblx5uYi+EilQvpq/koKMnCIUN3kw9noJx8rlQDpLc+PKq0UM7tO+q726htuDhYF0sw30mTpbYoAYIAaIge3EwLYRWlMmIZO3X8ZXNcqkiYNUHuXq5MtyCv4eVPD3UQVrLkNoxWdKWBpU8L7dgbu1EvqzhKCIiFU6c0jw9TlwIEnCwyoRx5odcMZLmO+UkO8XSpfdMm5lG0Il1L7Qze1MEdGWLyAtwv2h128FEJGEEGP7MfhsDbOLnzDz2v9aXMXc9TY14sXLViouYuL1CiYfTuHM2TNors6DHCK6IuVvtt1OaLG4/ej1fsTEqSooIfnr+fCN9VWeFdwb3q8KKcYSUXP5HR5dbUWC/x4SWtSJ6rzQO7FADBAD252BbS+0mChirE/BTJmIkmQBBUkC2pxykNDiTo6LF9BaLMHD91INKnhWGhwZipTOlwav9TrQU+DAg71atKkvV8KHBr6cqC0dblRomRud5x96//cXWh9wutm/pKgvLabGB0WElLRy1LSfQP+oD5OvV3CtKzcofbNCi4l5aB5/h4c3OpEmGqKVCQoS9iTBYVoS1PZwufxCqw4nX77FwD7jHhJa1LGanzH6TDwQA8TAdmZg2wit0KVDPWLFeHTpmAM9/s3tfOnNVRcstARBCERnuLMLymR8bRYR74+AWKXz/I4dlnHL6cDVDKbee73WoW6K53lxoRTN0mHo5na90fn9I93RLR0KjnjIkiEo9DyieWcVl9f94k+zny8dfsbZemOpTk7JR25aQkBICaIU2GfF7+FLi3O3uoOiTpHyN9sWKaLFhFRUexbxaGIIuSEb3Zl8GKNvXqLHv1lei2gtY/KkHtFy4uTC+s3+tHRIHauZPfpMPBADxMB2ZWDbCK1l/2b4Ir5MeMS0GV4QMd4v49cqLaJVXeiAz20ILS6U2hoUfGiUcCBFQG6ygFOtClbqRPWsJbt03jAHnTL+cDswGM/gyHdgqUfG9F5N8PD79c3wfDO7vhn+fr4RMbOKUPH7QzfD+8Jthk9swcjzVcx4TyAnwrKaFUQs7xQm3jxDb0WRthk+Jc4fEdI2wz9+eAk1xfnILm3Dycd/4kpnpj9dQe3VFTy43o/Sghyk51Whc/wDvCO1QWdVRc5fQmKGP1rWPIbpwIb8dFWoMaZg79A8Hs+Nw1WgH+OQhdTURP9m/VQ03FrG1K0hlBUUovCgB2Ov3qC/VBOGjMVjT04hcvKNV9s47dGyYoHSaMAhBogBYmD7MLBthNZUmYixDu14h99cEgpMS0kZ2RJmumX16Ad+dENPtSG0OExigoirh2R8GtSOd3jT4kB9vBEZskvnRzx8HXDgIF8qTJPw/pgMT5pxv3q8g8t/vMMRGVNhjneIFNHi9vE9W/rxDm9bJAw512+GZ3EuDD9dhneiDxnfIrRYGqrOzmHq1ap66Kf5+AQWV4TmS3N48PITfPMvcGm4ASkm/wrpjTg68QrTr1cxu/AOE+Pn151jxSLkz4936JleH3GaW7qHWokvvWah42GY9MenA4JS2FML9y+/wfvqE3xzsxg+XLRuj5i506Clw+3TgZjbhT5TuxADxAAxsJ6BbSO0Hpo2w1NDrW8o8gn5hBggBogBYoAY2HkMbBuhZf7VIYG080CiNqM2IwaIAWKAGCAG1jNAQusH/AseAnE9iOQT8gkxQAwQA8TAbmTghwut3ehUqhN1FsQAMUAMEAPEADHAGSChRRGtwDEP1ClQp0AMEAPEADFADGwtAyS0SGiR0CIGiAFigBggBoiBGDHwzUKLFO/WKl7yJ/mTGCAGiAFigBjYfQyQ0IqRgqWHZfc9LNSm1KbEADFADBADG2WAhBYJLQoXEwPEADFADBADxECMGCChFSPHblTx0vU0SyIGiAFigBggBnYfAyS0SGjRLIYYIAaIAWKAGCAGYsTA/wdqXBsHU8NMaAAAAABJRU5ErkJggg==;" vertex="1" parent="1">
                    <mxGeometry x="70" y="240.21" width="397.44" height="89.79" as="geometry"/>
                </mxCell>
                <mxCell id="31" value="application-local.yml" style="text;html=1;strokeColor=none;fillColor=none;align=center;verticalAlign=middle;whiteSpace=wrap;rounded=0;fontColor=#000000;fontStyle=1;fontSize=15;fontFamily=Comic Sans MS;" vertex="1" parent="1">
                    <mxGeometry x="70" y="210.21" width="180" height="30" as="geometry"/>
                </mxCell>
                <mxCell id="32" value="application-prod.yml" style="text;html=1;strokeColor=none;fillColor=none;align=center;verticalAlign=middle;whiteSpace=wrap;rounded=0;fontColor=#000000;fontStyle=1;fontSize=15;fontFamily=Comic Sans MS;" vertex="1" parent="1">
                    <mxGeometry x="70" y="330" width="180" height="30" as="geometry"/>
                </mxCell>
            </root>
        </mxGraphModel>
    </diagram>
</mxfile>